<?xml version="1.0"?>
<svg width="1000" height="85" xmlns="http://www.w3.org/2000/svg" xmlns:svg="http://www.w3.org/2000/svg">
 <style type="text/css">.st0{fill:#FFFFFF;}
	.st1{fill:#1CB0F6;}
	.st2{fill:#D33131;}
	.st3{fill:#7AC70C;}
	.st4{fill:#FFC200;}
	.st5{fill:#231F20;}
	.st6{fill:#3871DB;}
	.st7{fill:#FFCE00;}
	.st8{fill:#7A221E;stroke:#7A221E;stroke-width:2;stroke-miterlimit:10;}
	.st9{fill:#7A221E;}
	.st10{fill:#FF9100;}
	.st11{fill:#262626;}
	.st12{fill:#FFFFFF;stroke:#FFFFFF;stroke-width:3.3349;stroke-miterlimit:10;}
	.st13{fill:none;stroke:#1CB0F6;stroke-width:1.9204;stroke-miterlimit:10;}
	.st14{opacity:0.53;fill:#FFFFFF;}
	.st15{opacity:0.5;fill:#FFFFFF;}
	.st16{fill:none;stroke:#FFFFFF;stroke-width:2;stroke-linecap:round;stroke-linejoin:round;stroke-miterlimit:10;}
	.st17{fill:#C5DD9E;}
	.st18{fill:none;stroke:#FFFFFF;stroke-width:1.9456;stroke-miterlimit:10;}
	.st19{fill:none;stroke:#FFFFFF;stroke-width:2;stroke-miterlimit:10;}
	.st20{fill:none;stroke:#FFFFFF;stroke-width:2.0472;stroke-linecap:round;stroke-linejoin:round;stroke-miterlimit:10;}
	.st21{fill:#7AC70C;stroke:#7AC70C;stroke-width:0.8092;stroke-linecap:round;stroke-linejoin:round;stroke-miterlimit:10;}
	.st22{fill:none;stroke:#1CB0F6;stroke-width:2.3169;stroke-miterlimit:10;}
	.st23{fill:#1EB53B;}
	.st24{fill:#00A3DC;}
	.st25{fill:#FCD114;}
	.st26{fill:#90D8F4;}</style>
 <g>
  <title>background</title>
  <rect x="-1" y="-1" width="1002" height="87" id="canvas_background" fill="none"/>
 </g>
 <g>
  <title>Layer 1</title>
  <g id="Layer_1">
   <g class="fr" id="fr">
    <rect y="-0.832393" fill="black" x="26.7" class="st0" width="26.7" height="80" id="svg_4"/>
    <rect x="0" y="-0.832393" fill="black" class="st1" width="26.7" height="80" id="svg_5"/>
    <rect y="-0.832393" fill="black" x="53.4" class="st2" width="26.7" height="80" id="svg_6"/>
   </g>
   <g class="es" id="es">
    <rect fill="black" x="99.683803" y="18.183803" class="st4" width="80" height="42.9" id="svg_58"/>
    <rect y="-0.416197" fill="black" x="99.683803" class="st2" width="80" height="18.6" id="svg_59"/>
    <rect x="99.683803" y="61.083803" class="st2" width="80" height="18.6" id="svg_60"/>
    <g id="svg_61">
     <g id="svg_62">
      <path class="st9" d="m139.883803,50.383803c-2.7,0 -5,-0.8 -6.2,-2l0,0.8c0,0.6 -0.4,1 -1,1l-3.9,0c-0.6,0 -1,-0.4 -1,-1l0,-1.8c0,-0.4 0.2,-0.7 0.6,-0.9l0,-5.5l-0.5,0c-0.6,0 -1,-0.4 -1,-1l0,-1.4c0,-0.6 0.4,-1 1,-1l0.5,0l0,-2.7c0,-0.1 0,-0.3 0.1,-0.4c-0.1,-0.2 -0.1,-0.5 -0.1,-0.7c0,-1.5 1.7,-1.5 2.3,-1.5c2.2,0 2.4,1.2 2.4,1.6c0.2,-0.1 0.4,-0.2 0.6,-0.2l12.3,0c0.2,0 0.4,0.1 0.6,0.2c0,0 0,0 0,-0.1c0,-1.5 1.7,-1.5 2.3,-1.5c2.2,0 2.4,1.3 2.4,1.6c0,0.2 0,0.4 -0.1,0.6c0,0.1 0.1,0.2 0.1,0.4l0,2.7l0.2,0c0.6,0 1,0.4 1,1l0,1.4c0,0.6 -0.4,1 -1,1l-0.2,0l0,5.4c0.4,0.2 0.6,0.5 0.6,0.9l0,1.8c0,0.6 -0.4,1 -1,1l-3.9,0c-0.6,0 -1,-0.4 -1,-1l0,-0.8c-1.1,1.4 -3.4,2.1 -6.1,2.1z" id="svg_63"/>
      <path class="st9" d="m148.983803,33.483803c0.6,0 1.4,0.1 1.4,0.6c0,0.4 -0.4,0.7 -0.6,0.9l0.5,0l0,3.7l1.2,0l0,1.4l-1.2,0l0,7.3l0.6,0l0,1.8l-3.9,0l0,-1.8l0.6,0l0,-7.3l-1.6,0l0,6.4l0,0c-0.1,1.7 -2.8,3 -6.1,3c-3.3,0 -6,-1.3 -6.1,-3l0,0l0,-6.4l-1.7,0l0,7.4l0.6,0l0,1.8l-3.9,0l0,-1.8l0.6,0l0,-7.4l-1.5,0l0,-1.4l1.5,0l0,-3.7l0.4,0c-0.2,-0.2 -0.5,-0.7 -0.5,-1.1c0,-0.5 0.7,-0.5 1.3,-0.5c0.6,0 1.4,0.1 1.4,0.6c0,0.4 -0.4,0.7 -0.6,0.9l0.5,0l0,3.7l1.7,0l0,-3.8l12.3,0l0,3.8l1.6,0l0,-3.7l0.4,0c-0.2,-0.2 -0.5,-0.7 -0.5,-1.1c0.3,-0.3 1,-0.3 1.6,-0.3m0,-2c-1.9,0 -2.7,0.7 -3.1,1.4l-12.1,0c-0.5,-0.8 -1.4,-1.4 -3.1,-1.4c-2.9,0 -3.3,1.6 -3.3,2.5c0,0.2 0,0.5 0.1,0.7c0,0.1 0,0.2 0,0.4l0,1.7c-0.9,0.2 -1.5,1 -1.5,1.9l0,1.4c0,0.9 0.6,1.7 1.5,1.9l0,4c-0.4,0.4 -0.6,0.9 -0.6,1.4l0,1.8c0,1.1 0.9,2 2,2l3.9,0c0.8,0 1.4,-0.4 1.7,-1c1.4,0.8 3.3,1.2 5.4,1.2c2.1,0 4,-0.5 5.4,-1.2c0.3,0.6 1,1 1.7,1l3.9,0c1.1,0 2,-0.9 2,-2l0,-1.8c0,-0.6 -0.2,-1.1 -0.6,-1.4l0,-4.1c0.7,-0.3 1.2,-1 1.2,-1.8l0,-1.4c0,-0.8 -0.5,-1.5 -1.2,-1.8l0,-1.8c0,-0.1 0,-0.2 0,-0.3c0,-0.2 0.1,-0.4 0.1,-0.6c0,-1.3 -0.9,-2.7 -3.4,-2.7l0,0z" id="svg_64"/>
     </g>
     <g id="svg_65">
      <path class="st9" d="m139.883803,35.483803c-2.8,0 -4.5,-0.1 -4.9,-1l-2.4,-2.6c-0.2,-0.2 -0.3,-0.4 -0.3,-0.7c0,-2.4 2.8,-4 7.4,-4c2.5,0 7.6,0 7.6,4c0,1.4 -1.3,2.1 -2,2.5c-0.2,0.1 -0.4,0.2 -0.5,0.3c-0.3,1.5 -2.4,1.5 -4.9,1.5z" id="svg_66"/>
      <path class="st9" d="m139.783803,28.183803c3.9,0 6.6,0.5 6.6,3c0,1.5 -2.6,1.7 -2.6,2.6c0,0.6 -2.2,0.6 -3.9,0.6c-1.7,0 -4,0 -4,-0.5l-2.6,-2.8c0,-1.7 2.6,-2.9 6.5,-2.9m0,-2c-6.2,0 -8.4,2.6 -8.4,5c0,0.5 0.2,1 0.5,1.3l2.2,2.4c0.7,1.5 3.2,1.5 5.8,1.5c2.4,0 5.1,0 5.8,-1.8c0,0 0.1,0 0.1,-0.1c0.8,-0.4 2.6,-1.4 2.6,-3.4c-0.1,-4.9 -6.3,-4.9 -8.6,-4.9l0,0z" id="svg_67"/>
     </g>
    </g>
   </g>
   <g class="de" id="de">
    <rect fill="black" x="199.583803" y="26.283803" class="st2" width="80" height="26.7" id="svg_11"/>
    <rect fill="black" x="199.583803" y="52.983803" class="st4" width="80" height="26.7" id="svg_12"/>
    <rect y="-0.416197" fill="black" x="199.583803" class="st5" width="80" height="26.7" id="svg_13"/>
   </g>
   <g class="pt" id="pt">
    <rect y="-0.416197" fill="black" x="299.583803" class="st3" width="80" height="80" id="svg_7"/>
    <path fill="black" class="st7" d="m376.583803,40.683803l-36.5,-28.8c-0.2,-0.1 -0.4,-0.1 -0.6,0l-36.5,28.8c-0.1,0.1 -0.2,0.2 -0.2,0.4s0.1,0.3 0.2,0.4l36.5,28.8c0.1,0.1 0.2,0.1 0.3,0.1s0.2,0 0.3,-0.1l36.5,-28.8c0.1,-0.1 0.2,-0.2 0.2,-0.4s0,-0.3 -0.2,-0.4z" id="svg_33"/>
    <circle class="st1" cx="339.383803" cy="40.383803" r="16.200001" id="svg_207"/>
    <path fill="black" class="st0" d="m323.583803,36.483803c-0.3,1.2 -0.5,2.5 -0.5,3.9c0,0.5 0,1.1 0.1,1.6c4,-1 8.6,-1.6 13.3,-1.6c7,0 13.5,1.3 18.6,3.4c0.2,-1.1 0.4,-2.2 0.4,-3.4c0,-0.7 -0.1,-1.3 -0.1,-2c-5.2,-2.2 -11.7,-3.4 -18.9,-3.4c-4.6,0 -8.9,0.5 -12.9,1.5z" id="svg_208"/>
    <circle class="st0" cx="344.683803" cy="32.083803" r="1" id="svg_209"/>
    <circle class="st0" cx="329.883803" cy="44.183803" r="1" id="svg_210"/>
    <circle class="st0" cx="334.983803" cy="43.483803" r="0.8" id="svg_211"/>
    <circle class="st0" cx="332.283803" cy="47.483803" r="0.8" id="svg_212"/>
    <circle class="st0" cx="348.483803" cy="48.883803" r="0.8" id="svg_213"/>
    <circle class="st0" cx="350.383803" cy="45.883803" r="0.8" id="svg_214"/>
   </g>
   <g class="it" id="it">
    <rect y="-0.416197" fill="black" x="426.283803" class="st0" width="26.7" height="80" id="svg_8"/>
    <rect y="-0.416197" fill="black" x="399.583803" class="st3" width="26.7" height="80" id="svg_9"/>
    <rect y="-0.416197" fill="black" x="452.983803" class="st2" width="26.7" height="80" id="svg_10"/>
   </g>
   <g class="en" id="en">
    <rect y="-0.416197" x="499.583803" class="st1" width="40.6" height="40.3" id="svg_3"/>
    <g id="svg_34">
     <path class="st0" d="m511.283803,6.983803l0,0m-3.2,-3.1c-0.4,0 -0.7,0.2 -0.8,0.6l-0.6,1.7l-1.8,0c-0.4,0 -0.7,0.2 -0.8,0.6c-0.1,0.3 0,0.7 0.3,0.9l1.5,1.1l-0.6,1.7c-0.1,0.3 0,0.7 0.3,0.9c0.1,0.1 0.3,0.2 0.5,0.2c0.2,0 0.3,-0.1 0.5,-0.2l1.5,-1.1l1.5,1.1c0.1,0.1 0.3,0.2 0.5,0.2c0.2,0 0.3,-0.1 0.5,-0.2c0.3,-0.2 0.4,-0.6 0.3,-0.9l-0.6,-1.7l1.4,-1c0.2,-0.1 0.4,-0.4 0.4,-0.7c0,-0.5 -0.4,-0.8 -0.8,-0.8l0,0l-1.8,0l-0.6,-1.7c-0.1,-0.5 -0.4,-0.7 -0.8,-0.7l0,0z" id="svg_35"/>
    </g>
    <g id="svg_36">
     <path class="st0" d="m523.183803,6.983803l0,0m-3.2,-3.1c-0.4,0 -0.7,0.2 -0.8,0.6l-0.6,1.7l-1.8,0c-0.4,0 -0.7,0.2 -0.8,0.6c-0.1,0.3 0,0.7 0.3,0.9l1.5,1.1l-0.6,1.7c-0.1,0.3 0,0.7 0.3,0.9c0.1,0.1 0.3,0.2 0.5,0.2c0.2,0 0.3,-0.1 0.5,-0.2l1.5,-1.1l1.5,1.1c0.1,0.1 0.3,0.2 0.5,0.2c0.2,0 0.3,-0.1 0.5,-0.2c0.3,-0.2 0.4,-0.6 0.3,-0.9l-0.6,-1.7l1.4,-1c0.2,-0.1 0.4,-0.4 0.4,-0.7c0,-0.5 -0.4,-0.8 -0.8,-0.8l0,0l-1.8,0l-0.6,-1.7c-0.1,-0.5 -0.4,-0.7 -0.8,-0.7l0,0z" id="svg_37"/>
    </g>
    <g id="svg_38">
     <path class="st0" d="m534.983803,6.983803l0,0m-3.1,-3.1c-0.4,0 -0.7,0.2 -0.8,0.6l-0.6,1.7l-1.8,0c-0.4,0 -0.7,0.2 -0.8,0.6c-0.1,0.3 0,0.7 0.3,0.9l1.5,1.1l-0.6,1.7c-0.1,0.3 0,0.7 0.3,0.9c0.1,0.1 0.3,0.2 0.5,0.2c0.2,0 0.3,-0.1 0.5,-0.2l1.5,-1.1l1.5,1.1c0.1,0.1 0.3,0.2 0.5,0.2c0.2,0 0.3,-0.1 0.5,-0.2c0.3,-0.2 0.4,-0.6 0.3,-0.9l-0.6,-1.7l1.4,-1c0.2,-0.1 0.4,-0.4 0.4,-0.7c0,-0.5 -0.4,-0.8 -0.8,-0.8l0,0l-1.8,0l-0.7,-1.9c-0.1,-0.3 -0.4,-0.5 -0.7,-0.5l0,0z" id="svg_39"/>
    </g>
    <g id="svg_40">
     <path class="st0" d="m511.283803,18.883803l0,0m-3.2,-3.1c-0.4,0 -0.7,0.2 -0.8,0.6l-0.6,1.7l-1.8,0c-0.4,0 -0.7,0.2 -0.8,0.6c-0.1,0.3 0,0.7 0.3,0.9l1.5,1.1l-0.6,1.7c-0.1,0.3 0,0.7 0.3,0.9c0.1,0.1 0.3,0.2 0.5,0.2c0.2,0 0.3,-0.1 0.5,-0.2l1.5,-1.1l1.5,1.1c0.1,0.1 0.3,0.2 0.5,0.2c0.2,0 0.3,-0.1 0.5,-0.2c0.3,-0.2 0.4,-0.6 0.3,-0.9l-0.6,-1.7l1.4,-1c0.2,-0.1 0.4,-0.4 0.4,-0.7c0,-0.5 -0.4,-0.8 -0.8,-0.8l0,0l-1.8,0l-0.6,-1.7c-0.1,-0.5 -0.4,-0.7 -0.8,-0.7l0,0z" id="svg_41"/>
    </g>
    <g id="svg_42">
     <path class="st0" d="m523.183803,18.883803l0,0m-3.2,-3.1c-0.4,0 -0.7,0.2 -0.8,0.6l-0.6,1.7l-1.8,0c-0.4,0 -0.7,0.2 -0.8,0.6c-0.1,0.3 0,0.7 0.3,0.9l1.5,1.1l-0.6,1.7c-0.1,0.3 0,0.7 0.3,0.9c0.1,0.1 0.3,0.2 0.5,0.2c0.2,0 0.3,-0.1 0.5,-0.2l1.5,-1.1l1.5,1.1c0.1,0.1 0.3,0.2 0.5,0.2c0.2,0 0.3,-0.1 0.5,-0.2c0.3,-0.2 0.4,-0.6 0.3,-0.9l-0.6,-1.7l1.4,-1c0.2,-0.1 0.4,-0.4 0.4,-0.7c0,-0.5 -0.4,-0.8 -0.8,-0.8l0,0l-1.8,0l-0.6,-1.7c-0.1,-0.5 -0.4,-0.7 -0.8,-0.7l0,0z" id="svg_43"/>
    </g>
    <g id="svg_44">
     <path class="st0" d="m534.983803,18.883803l0,0m-3.1,-3.1c-0.4,0 -0.7,0.2 -0.8,0.6l-0.6,1.7l-1.8,0c-0.4,0 -0.7,0.2 -0.8,0.6c-0.1,0.3 0,0.7 0.3,0.9l1.5,1.1l-0.6,1.7c-0.1,0.3 0,0.7 0.3,0.9c0.1,0.1 0.3,0.2 0.5,0.2c0.2,0 0.3,-0.1 0.5,-0.2l1.5,-1.1l1.5,1.1c0.1,0.1 0.3,0.2 0.5,0.2c0.2,0 0.3,-0.1 0.5,-0.2c0.3,-0.2 0.4,-0.6 0.3,-0.9l-0.6,-1.7l1.4,-1c0.2,-0.1 0.4,-0.4 0.4,-0.7c0,-0.5 -0.4,-0.8 -0.8,-0.8l0,0l-1.8,0l-0.6,-1.7c-0.2,-0.5 -0.5,-0.7 -0.8,-0.7l0,0z" id="svg_45"/>
    </g>
    <g id="svg_46">
     <path class="st0" d="m511.283803,30.683803l0,0m-3.2,-3.1c-0.4,0 -0.7,0.2 -0.8,0.6l-0.6,1.7l-1.8,0c-0.4,0 -0.7,0.2 -0.8,0.6c-0.1,0.3 0,0.7 0.3,0.9l1.5,1.1l-0.6,1.7c-0.1,0.3 0,0.7 0.3,0.9c0.1,0.1 0.3,0.2 0.5,0.2c0.2,0 0.3,-0.1 0.5,-0.2l1.5,-1.1l1.5,1.1c0.1,0.1 0.3,0.2 0.5,0.2c0.2,0 0.3,-0.1 0.5,-0.2c0.3,-0.2 0.4,-0.6 0.3,-0.9l-0.6,-1.7l1.4,-1c0.2,-0.1 0.4,-0.4 0.4,-0.7c0,-0.5 -0.4,-0.8 -0.8,-0.8l0,0l-1.8,0l-0.6,-1.7c-0.1,-0.4 -0.4,-0.7 -0.8,-0.7l0,0z" id="svg_47"/>
    </g>
    <g id="svg_48">
     <path class="st0" d="m523.183803,30.683803l0,0m-3.2,-3.1c-0.4,0 -0.7,0.2 -0.8,0.6l-0.6,1.7l-1.8,0c-0.4,0 -0.7,0.2 -0.8,0.6c-0.1,0.3 0,0.7 0.3,0.9l1.5,1.1l-0.6,1.7c-0.1,0.3 0,0.7 0.3,0.9c0.1,0.1 0.3,0.2 0.5,0.2c0.2,0 0.3,-0.1 0.5,-0.2l1.5,-1.1l1.5,1.1c0.1,0.1 0.3,0.2 0.5,0.2c0.2,0 0.3,-0.1 0.5,-0.2c0.3,-0.2 0.4,-0.6 0.3,-0.9l-0.6,-1.7l1.4,-1c0.2,-0.1 0.4,-0.4 0.4,-0.7c0,-0.5 -0.4,-0.8 -0.8,-0.8l0,0l-1.8,0l-0.6,-1.7c-0.1,-0.4 -0.4,-0.7 -0.8,-0.7l0,0z" id="svg_49"/>
    </g>
    <g id="svg_50">
     <path class="st0" d="m534.983803,30.683803l0,0m-3.1,-3.1c-0.4,0 -0.7,0.2 -0.8,0.6l-0.6,1.7l-1.8,0c-0.4,0 -0.7,0.2 -0.8,0.6c-0.1,0.3 0,0.7 0.3,0.9l1.5,1.1l-0.6,1.7c-0.1,0.3 0,0.7 0.3,0.9c0.1,0.1 0.3,0.2 0.5,0.2c0.2,0 0.3,-0.1 0.5,-0.2l1.5,-1.1l1.5,1.1c0.1,0.1 0.3,0.2 0.5,0.2c0.2,0 0.3,-0.1 0.5,-0.2c0.3,-0.2 0.4,-0.6 0.3,-0.9l-0.6,-1.7l1.4,-1c0.2,-0.1 0.4,-0.4 0.4,-0.7c0,-0.5 -0.4,-0.8 -0.8,-0.8l0,0l-1.8,0l-0.6,-1.7c-0.2,-0.4 -0.5,-0.7 -0.8,-0.7l0,0z" id="svg_51"/>
    </g>
    <g id="svg_233">
     <polygon class="st2" points="540.0838032960892,39.88380253314972 499.5838032960892,39.88380253314972 499.5838032960892,49.58380329608917 579.5838032960892,49.58380329608917 579.5838032960892,39.88380253314972 540.0838032960892,39.88380253314972 " id="svg_234"/>
     <rect x="499.583803" y="59.883803" class="st2" width="80" height="9.7" id="svg_235"/>
     <rect y="-0.416197" x="540.083803" class="st2" width="39.5" height="10" id="svg_236"/>
     <rect x="540.083803" y="19.883803" class="st2" width="39.5" height="9.7" id="svg_237"/>
    </g>
    <rect fill="black" x="540.083803" y="29.583803" class="st0" width="39.5" height="10.3" id="svg_238"/>
    <rect x="540.083803" y="9.583803" class="st0" width="39.5" height="10.3" id="svg_239"/>
    <rect fill="black" x="499.583803" y="49.583803" class="st0" width="80" height="10.3" id="svg_241"/>
    <rect x="499.583803" y="69.583803" class="st0" width="80" height="10" id="svg_242"/>
   </g>
   <g class="zt" id="zt">
    <polygon fill="black" class="st2" points="640.1746846437454,-0.7798324227333069 640.1746846437454,9.22016727924347 640.1746846437454,9.22016727924347 640.1746846437454,19.520172238349915 640.1746846437454,19.520172238349915 640.1746846437454,29.220169186592102 640.1746846437454,29.220169186592102 640.1746846437454,39.52017033100128 599.6746846437454,39.52017033100128 599.6746846437454,49.22016727924347 599.6746846437454,59.52015507221222 599.6746846437454,69.22017109394073 599.6746846437454,79.22017109394073 679.6746846437454,79.22017109394073 679.6746846437454,69.22017109394073 679.6746846437454,59.52015507221222 679.6746846437454,49.22016727924347 679.6746846437454,39.52017033100128 679.6746846437454,29.220169186592102 679.6746846437454,-0.7798324227333069 " id="svg_284"/>
    <rect x="599.674712" y="-0.779833" class="st1" width="40.6" height="40.3" id="svg_282"/>
    <g id="svg_286">
     <g id="svg_287">
      <path class="st0" d="m634.474713,17.520163l-4.2,-1.2c0.2,0.9 0.4,1.8 0.4,2.7c0,0.2 0,0.3 0,0.5l3.8,-2z" id="svg_288"/>
      <path class="st0" d="m619.574713,8.720163l-2.6,-3.9l-0.8,4.7c1.1,-0.5 2.2,-0.7 3.4,-0.8z" id="svg_289"/>
      <path class="st0" d="m615.574713,9.820163l-4,-2.5l1.2,4.7c0.7,-0.9 1.7,-1.6 2.8,-2.2z" id="svg_290"/>
      <path class="st0" d="m623.874713,9.320163l-0.8,-4.5l-2.6,3.9c1.2,0 2.3,0.2 3.4,0.6z" id="svg_291"/>
      <path class="st0" d="m627.474713,11.620163l1.1,-4.3l-3.8,2.4c1,0.5 1.9,1.1 2.7,1.9z" id="svg_292"/>
      <path class="st0" d="m629.874713,15.220163l2.7,-3.4l-4.4,0.6c0.8,0.8 1.3,1.8 1.7,2.8z" id="svg_293"/>
      <path class="st0" d="m612.274713,12.420163l-4.8,-0.7l3,3.8c0.4,-1.1 1,-2.1 1.8,-3.1z" id="svg_294"/>
      <path class="st0" d="m622.674713,29.120163l3.2,3.2l-0.2,-4.4c-0.8,0.5 -1.9,1 -3,1.2z" id="svg_295"/>
      <path class="st0" d="m626.674713,27.220163l4.2,1.5l-1.9,-3.9c-0.7,0.9 -1.4,1.7 -2.3,2.4z" id="svg_296"/>
      <path class="st0" d="m629.474713,23.820163l4.4,-0.3l-3.4,-2.8c-0.1,1.1 -0.5,2.1 -1,3.1z" id="svg_297"/>
      <path class="st0" d="m609.874713,19.020163c0,-1 0.1,-2 0.4,-2.9l-4.7,1.3l4.3,2.3c0,-0.2 0,-0.4 0,-0.7z" id="svg_298"/>
      <path class="st0" d="m620.274713,29.420163c-0.7,0 -1.3,-0.1 -1.9,-0.2l1.7,4.3l1.7,-4.2c-0.5,0.1 -1,0.1 -1.5,0.1z" id="svg_299"/>
      <path class="st0" d="m609.974713,20.420163l-3.7,3.1l4.8,0.3c-0.6,-1 -1,-2.2 -1.1,-3.4z" id="svg_300"/>
      <path class="st0" d="m611.374713,24.420163l-2.1,4.3l4.4,-1.6c-0.9,-0.8 -1.7,-1.7 -2.3,-2.7z" id="svg_301"/>
      <path class="st0" d="m614.274713,27.620163l-0.2,4.7l3.3,-3.2c-1.1,-0.4 -2.1,-0.9 -3.1,-1.5z" id="svg_302"/>
     </g>
     <circle class="st0" cx="620.274712" cy="19.020167" r="8.8" id="svg_303"/>
    </g>
   </g>
   <g class="ja" id="jp">
    <rect fill="#ffffff" x="799.674712" y="-0.679833" class="ja" width="80" height="80" id="ja"/>
    <circle fill="black" class="st2" cx="839.974712" cy="38.220167" r="23.700001" id="svg_273"/>
   </g>
   <g class="zh_CN" id="zh">
    <polygon fill="black" class="st2" points="701.6746846437454,-0.7798289358615875 701.6746846437454,39.220171093940735 701.6746846437454,79.22017109394073 781.6746846437454,79.22017109394073 781.6746846437454,39.220171093940735 781.6746846437454,-0.7798289358615875 " id="zh_CN"/>
    <g id="svg_154">
     <path fill="black" class="st4" d="m711.674713,28.320163c0,0 -0.1,0 -0.1,0c-0.1,-0.1 -0.1,-0.2 -0.1,-0.3l1.7,-5.4l-4.6,-3.3c-0.1,-0.1 -0.1,-0.2 -0.1,-0.3s0.1,-0.2 0.2,-0.2l5.6,0l1.7,-5.4c0,-0.1 0.1,-0.2 0.2,-0.2c0.1,0 0.2,0.1 0.2,0.2l1.7,5.4l5.6,0c0.1,0 0.2,0.1 0.2,0.2c0,0.1 0,0.2 -0.1,0.3l-4.6,3.3l1.7,5.4c0,0.1 0,0.2 -0.1,0.3c0,0 -0.1,0 -0.1,0s-0.1,0 -0.1,0l-4.6,-3.3l-4.6,3.3c0.4,0 0.4,0 0.3,0z" id="svg_155"/>
     <path fill="black" class="st4" d="m716.374713,13.620163l1.8,5.5l5.8,0l-4.7,3.4l1.8,5.5l-4.7,-3.4l-4.7,3.4l1.8,-5.5l-4.7,-3.4l5.8,0l1.8,-5.5m7.6,5.6l0,0m-7.6,-6c-0.2,0 -0.4,0.1 -0.4,0.3l-1.7,5.2l-5.5,0c-0.2,0 -0.4,0.1 -0.4,0.3c-0.1,0.2 0,0.4 0.2,0.5l4.4,3.2l-1.7,5.2c-0.1,0.2 0,0.4 0.2,0.5c0.1,0.1 0.2,0.1 0.3,0.1s0.2,0 0.3,-0.1l4.4,-3.2l4.4,3.2c0.1,0.1 0.2,0.1 0.3,0.1s0.2,0 0.3,-0.1c0.2,-0.1 0.2,-0.3 0.2,-0.5l-1.7,-5.2l4.4,-3.2c0.1,-0.1 0.2,-0.2 0.2,-0.4c0,-0.3 -0.2,-0.5 -0.5,-0.5l0,0l-5.5,0l-1.7,-5.2c-0.1,-0.1 -0.3,-0.2 -0.5,-0.2l0,0z" id="svg_156"/>
    </g>
    <g id="svg_163">
     <path fill="black" class="st4" d="m738.974713,31.320163c0,0 0,0 0,0l-2.3,-1.6l-2.2,1.6c0,0 0,0 -0.1,0c0,0 0,0 -0.1,0c0,0 -0.1,-0.1 0,-0.1l0.8,-2.6l-2.2,-1.6c0,0 -0.1,-0.1 0,-0.1c0,0 0.1,-0.1 0.1,-0.1l2.7,0l0.8,-2.6c0,0 0.1,-0.1 0.1,-0.1l0,0c0.1,0 0.1,0 0.1,0.1l0.8,2.6l2.7,0c0,0 0.1,0 0.1,0.1c0,0 0,0.1 0,0.1l-2.2,1.6l0.8,2.6c0.3,0 0.2,0.1 0.1,0.1c0.1,0 0.1,0 0,0z" id="svg_164"/>
     <path fill="black" class="st4" d="m736.774713,24.220163l0.9,2.7l2.8,0l-2.3,1.7l0.9,2.7l-2.3,-1.7l-2.3,1.7l0.9,-2.7l-2.3,-1.7l2.8,0l0.9,-2.7m3.6,2.7l0,0m-3.6,-2.9c-0.1,0 -0.2,0.1 -0.2,0.2l-0.8,2.5l-2.7,0c-0.1,0 -0.2,0.1 -0.2,0.2c0,0.1 0,0.2 0.1,0.3l2.1,1.6l-0.8,2.5c0,0.1 0,0.2 0.1,0.3c0,0 0.1,0 0.1,0c0,0 0.1,0 0.1,0l2.1,-1.6l2.1,1.6c0,0 0.1,0 0.1,0c0,0 0.1,0 0.1,0c0.1,-0.1 0.1,-0.2 0.1,-0.3l-0.8,-2.5l2.1,-1.6c0.1,0 0.1,-0.1 0.1,-0.2c0,-0.1 -0.1,-0.2 -0.2,-0.2l0,0l-2.7,0l-0.8,-2.5c0.1,-0.3 0,-0.3 0,-0.3l0,0z" id="svg_165"/>
    </g>
    <g id="svg_157">
     <path fill="black" class="st4" d="m730.333563,11.790733c0,0 -0.1,0 -0.1,-0.09999l-0.9,-2.6c0,0 -2.7,0.1 -2.7,0.1c0,0 -0.1,0 -0.1,-0.1c0,0 0,-0.1 0,-0.1l2.2,-1.7l-0.9,-2.6c0,0 0,-0.1 0,-0.1c0,0 0,0 0.1,0c0,0 0,0 0.1,0l2.3,1.5l2.2,-1.7c0,0 0,0 0.1,0c0,0 0,0 0.1,0c0,0 0.1,0.09999 0,0.09999l-0.8,2.60001l2.3,1.5c0,0 0.1,0.1 0,0.1c0,0 -0.1,0.09999 -0.1,0.09999l-2.7,0.1l-0.8,2.6c-0.2,0.2 -0.2,0.3 -0.3,0.3c0.1,0 0,0 0,0z" id="svg_158"/>
     <path fill="black" class="st4" d="m732.433563,4.590743l-0.8,2.7l2.3,1.6l-2.8,0.1l-0.8,2.7l-0.9,-2.7l-2.8,0.1l2.2,-1.7l-0.9,-2.7l2.3,1.59999l2.2,-1.7m0,-0.2c0,0 -0.1,0 -0.1,0l-2.1,1.6l-2.2,-1.5c0,0 -0.1,0 -0.1,0c0,0 -0.1,0 -0.1,0c-0.1,0.1 -0.1,0.2 -0.1,0.3l0.9,2.5l-2.1,1.6c-0.1,0.1 -0.1,0.2 -0.1,0.30001c0,0.09999 0.1,0.19999 0.2,0.19999c0,0 0,0 0,0l2.7,-0.1l0.9,2.5c0,0.1 0.1,0.2 0.2,0.2c0,0 0,0 0,0c0.1,0 0.2,-0.1 0.2,-0.2l0.7,-2.5l2.7,-0.09999c0.1,0 0.2,-0.1 0.2,-0.2c0,-0.1 0,-0.2 -0.1,-0.3l-2.2,-1.5l0.7,-2.5c0,-0.1 0,-0.20001 -0.1,-0.3c0,0 0,0 -0.1,0l0,0l0,-0.00001z" id="svg_159"/>
    </g>
    <g id="svg_160">
     <path fill="black" class="st4" d="m735.774713,21.520163c0,0 -0.1,-0.1 -0.1,-0.1l-0.1,-2.7l-2.6,-0.7c0,0 -0.1,-0.1 -0.1,-0.1c0,0 0,-0.1 0.1,-0.1l2.6,-1l-0.1,-2.7c0,0 0,-0.1 0.1,-0.1c0,0 0,0 0,0c0,0 0.1,0 0.1,0l1.7,2.1l2.6,-1c0,0 0,0 0,0c0,0 0.1,0 0.1,0c0,0 0,0.1 0,0.1l-1.5,2.3l1.7,2.1c0,0 0,0.1 0,0.1c0,0 -0.1,0.1 -0.1,0.1c0,0 0,0 0,0l-2.6,-0.7l-1.5,2.3c-0.2,0.1 -0.2,0.1 -0.3,0.1c0.1,0 0,0 0,0z" id="svg_161"/>
     <path fill="black" class="st4" d="m735.474713,14.020163l1.8,2.2l2.6,-1l-1.5,2.4l1.8,2.2l-2.7,-0.7l-1.5,2.4l-0.1,-2.8l-2.7,-0.7l2.6,-1l-0.3,-3m4.4,1.2l0,0m-4.4,-1.4c0,0 -0.1,0 0,0c-0.2,0.1 -0.2,0.1 -0.2,0.2l0.1,2.7l-2.5,0.9c-0.1,0 -0.2,0.1 -0.1,0.2c0,0.1 0.1,0.2 0.2,0.2l2.6,0.7l0.1,2.7c0,0.1 0.1,0.2 0.2,0.2c0,0 0,0 0.1,0c0.1,0 0.1,0 0.2,-0.1l1.5,-2.2l2.6,0.7c0,0 0,0 0.1,0c0.1,0 0.1,0 0.2,-0.1c0.1,-0.1 0,-0.2 0,-0.3l-1.7,-2.1l1.4,-2.2c0,0 0.1,-0.1 0.1,-0.1c0,-0.1 -0.1,-0.2 -0.2,-0.2l0,0c0,0 0,0 0,0c0,0 0,0 0,0c0,0 0,0 -0.1,0l-2.5,0.9l-1.7,-2.1c-0.3,0 -0.3,0 -0.4,0l0,0z" id="svg_162"/>
    </g>
    <g id="svg_179">
     <path class="st4" d="m727.874713,39.320163c0,0 -0.1,0 -0.1,-0.1l-1.3,-2.4c0,0 -2.7,0.5 -2.7,0.5c0,0 -0.1,0 -0.1,-0.1c0,0 0,-0.1 0,-0.1l1.9,-2l-1.3,-2.4c0,0 0,-0.1 0,-0.1c0,0 0.1,0 0.1,0c0,0 0,0 0,0l2.5,1.2l1.9,-2c0,0 0.1,0 0.1,0c0,0 0,0 0,0c0,0 0.1,0.1 0.1,0.1l-0.4,2.7l2.5,1.2c0,0 0.1,0.1 0.1,0.1c0,0 0,0.1 -0.1,0.1l-2.7,0.5l-0.4,2.7c0,0 0,0.1 -0.1,0.1c0,0 0,0 0,0z" id="svg_180"/>
     <path class="st4" d="m728.874713,31.820163l-0.4,2.8l2.5,1.2l-2.8,0.5l-0.4,2.8l-1.3,-2.5l-2.8,0.5l1.9,-2l-1.3,-2.5l2.5,1.2l2.1,-2m0,-0.2c-0.1,0 -0.1,0 -0.2,0.1l-1.8,1.9l-2.4,-1.1c0,0 -0.1,0 -0.1,0c-0.1,0 -0.1,0 -0.2,0.1c-0.1,0.1 -0.1,0.2 0,0.3l1.3,2.3l-1.8,1.9c-0.1,0.1 -0.1,0.2 0,0.3c0,0.1 0.1,0.1 0.2,0.1c0,0 0,0 0,0l2.6,-0.5l1.3,2.3c0,0.1 0.1,0.1 0.2,0.1c0,0 0,0 0,0c0.1,0 0.2,-0.1 0.2,-0.2l0.4,-2.6l2.6,-0.5c0.1,0 0.2,-0.1 0.2,-0.2c0,-0.1 0,-0.2 -0.1,-0.2l-2.4,-1.1l0.4,-2.6c-0.2,-0.2 -0.2,-0.3 -0.4,-0.4c0,0 0,0 0,0l0,0z" id="svg_181"/>
    </g>
   </g>
   <g id="svg_26">
    <circle class="st1" cx="940.274712" cy="38.220167" r="18.4" id="svg_488"/>
    <g id="svg_489">
     <rect x="987.346334" y="628.852623" transform="matrix(0.7071,-0.7071,0.7071,0.7071,-232.81,275.1135) " class="st11" width="12.9" height="2.2" id="svg_490"/>
     <rect x="989.346334" y="630.752623" transform="matrix(0.7071,-0.7071,0.7071,0.7071,-233.6265,277.0471) " class="st11" width="12.9" height="2.2" id="svg_491"/>
     <rect x="991.146334" y="632.652623" transform="matrix(0.7071,-0.7071,0.7071,0.7071,-234.4137,278.9112) " class="st11" width="12.9" height="2.2" id="svg_492"/>
    </g>
    <g id="svg_493">
     <rect x="424.352623" y="-325.046334" transform="matrix(0.7071,0.7071,-0.7071,0.7071,385.452,-22.1759) " class="st11" width="12.9" height="2.2" id="svg_494"/>
     <rect x="420.652623" y="-321.246334" transform="matrix(0.7071,0.7071,-0.7071,0.7071,387.0559,-18.3781) " class="st11" width="12.9" height="2.2" id="svg_495"/>
     <g id="svg_496">
      <rect x="423.552623" y="-325.546334" transform="matrix(0.7071,0.7071,-0.7071,0.7071,383.8134,-19.2631) " class="st11" width="6" height="2.2" id="svg_497"/>
      <rect x="997.046334" y="666.852623" transform="matrix(0.7071,-0.7071,0.7071,0.7071,-259.8192,289.8661) " class="st11" width="2.2" height="6.1" id="svg_498"/>
     </g>
    </g>
    <g id="svg_499">
     <g id="svg_500">
      <rect x="1036.846334" y="668.752623" transform="matrix(0.7071,-0.7071,0.7071,0.7071,-247.5766,319.3869) " class="st11" width="6" height="2.2" id="svg_501"/>
      <rect x="54.147377" y="1228.846334" transform="matrix(-0.7071,-0.7071,0.7071,-0.7071,134.2929,963.1008) " class="st11" width="2.2" height="6.1" id="svg_502"/>
     </g>
     <g id="svg_503">
      <rect x="1038.746334" y="670.652623" transform="matrix(0.7071,-0.7071,0.7071,0.7071,-248.3636,321.2484) " class="st11" width="6" height="2.2" id="svg_504"/>
      <rect x="56.047377" y="1230.746334" transform="matrix(-0.7071,-0.7071,0.7071,-0.7071,136.1544,967.6876) " class="st11" width="2.2" height="6.1" id="svg_505"/>
     </g>
     <g id="svg_506">
      <rect x="1035.046334" y="666.952623" transform="matrix(0.7071,-0.7071,0.7071,0.7071,-246.7896,317.5213) " class="st11" width="6" height="2.2" id="svg_507"/>
      <rect x="52.247377" y="1226.946334" transform="matrix(-0.7071,-0.7071,0.7071,-0.7071,132.4274,958.5137) " class="st11" width="2.2" height="6.1" id="svg_508"/>
     </g>
    </g>
    <g id="svg_509">
     <rect x="46.347377" y="1197.746334" transform="matrix(-0.7071,-0.7071,0.7071,-0.7071,153.4856,904.8953) " class="st11" width="12.9" height="2.2" id="svg_510"/>
     <g id="svg_511">
      <rect x="54.147377" y="1198.246334" transform="matrix(-0.7071,-0.7071,0.7071,-0.7071,160.5983,908.9113) " class="st11" width="6" height="2.2" id="svg_512"/>
      <rect x="-515.646334" y="201.947377" transform="matrix(-0.7071,0.7071,-0.7071,-0.7071,744.4683,524.3232) " class="st11" width="2.2" height="6.1" id="svg_513"/>
     </g>
     <g id="svg_514">
      <rect x="50.347377" y="1202.046334" transform="matrix(-0.7071,-0.7071,0.7071,-0.7071,151.425,912.6379) " class="st11" width="6" height="2.2" id="svg_515"/>
      <rect x="-519.246334" y="205.647377" transform="matrix(-0.7071,0.7071,-0.7071,-0.7071,740.8123,533.3257) " class="st11" width="2.2" height="6.1" id="svg_516"/>
     </g>
    </g>
    <path fill="black" class="st2" d="m958.674713,38.220163c0,-6.4 -3.2,-12 -8.1,-15.3c-2.9,-2 -6.5,-3.1 -10.3,-3.1c-9.3,0 -17,6.9 -18.3,15.9c0.8,1.5 3.8,6.1 10,6.1c8.4,0 8,-7.1 16.3,-7.1c7.1,0 9.7,5.5 10.2,6.7c0,-0.1 0,-0.1 0,-0.2c0.1,-0.4 0.1,-0.9 0.2,-1.3c0,-0.6 0,-1.1 0,-1.7z" id="svg_517"/>
   </g>
  </g>
  <g id="Layer_2"/>
 </g>
</svg>