<?xml version="1.0" encoding="utf-8"?>
<!-- Generated by IcoMoon.io -->
<!DOCTYPE svg PUBLIC "-//W3C//DTD SVG 1.1//EN" "http://www.w3.org/Graphics/SVG/1.1/DTD/svg11.dtd">
<svg version="1.1" xmlns="http://www.w3.org/2000/svg" xmlns:xlink="http://www.w3.org/1999/xlink" width="406" height="94" viewBox="0 0 406 94">
<svg id="icon-google-plus2" width="32" height="32" viewBox="0 0 32 32" x="0" y="0">
<path fill="#ef443d" d="M0.025 27.177c-0.008-0.079-0.014-0.158-0.018-0.238 0.004 0.080 0.011 0.159 0.018 0.238zM7.372 17.661c2.875 0.086 4.804-2.897 4.308-6.662s-3.231-6.787-6.106-6.873c-2.876-0.085-4.804 2.796-4.308 6.562 0.496 3.765 3.23 6.887 6.106 6.973zM32 8v-2.666c0-2.934-2.399-5.334-5.333-5.334h-21.333c-2.884 0-5.25 2.32-5.33 5.185 1.824-1.606 4.354-2.947 6.965-2.947 2.791 0 11.164 0 11.164 0l-2.498 2.113h-3.54c2.348 0.9 3.599 3.629 3.599 6.429 0 2.351-1.307 4.374-3.153 5.812-1.801 1.403-2.143 1.991-2.143 3.184 0 1.018 1.93 2.75 2.938 3.462 2.949 2.079 3.904 4.010 3.904 7.233 0 0.513-0.064 1.026-0.19 1.53h9.617c2.934 0 5.333-2.398 5.333-5.334v-16.666h-6v6h-2v-6h-6v-2h6v-6h2v6h6zM5.809 23.936c0.675 0 1.294-0.018 1.936-0.018-0.848-0.823-1.52-1.831-1.52-3.074 0-0.738 0.236-1.448 0.567-2.079-0.337 0.024-0.681 0.031-1.035 0.031-2.324 0-4.297-0.752-5.756-1.995v2.101l0 6.304c1.67-0.793 3.653-1.269 5.809-1.269zM0.107 27.727c-0.035-0.171-0.061-0.344-0.079-0.52 0.018 0.176 0.045 0.349 0.079 0.52zM14.233 29.776c-0.471-1.838-2.139-2.749-4.465-4.361-0.846-0.273-1.778-0.434-2.778-0.444-2.801-0.030-5.41 1.092-6.882 2.762 0.498 2.428 2.657 4.267 5.226 4.267h8.951c0.057-0.348 0.084-0.707 0.084-1.076 0-0.392-0.048-0.775-0.137-1.148z"></path>
</svg>
<svg id="icon-bubbles" width="18" height="16" viewBox="0 0 18 16" x="0" y="0">
<path d="M17 14.081c0 0.711 0.407 1.327 1 1.628v0.249c-0.166 0.023-0.335 0.035-0.508 0.035-1.063 0-2.021-0.446-2.699-1.16-0.41 0.109-0.844 0.168-1.293 0.168-2.485 0-4.5-1.791-4.5-4s2.015-4 4.5-4c2.485 0 4.5 1.791 4.5 4 0 0.865-0.309 1.665-0.834 2.32-0.107 0.232-0.166 0.489-0.166 0.761zM8 0c4.351 0 7.89 2.822 7.997 6.336-0.768-0.343-1.619-0.524-2.497-0.524-1.493 0-2.903 0.523-3.971 1.472-1.107 0.984-1.717 2.304-1.717 3.716 0 0.698 0.149 1.373 0.433 1.997-0.082 0.002-0.164 0.003-0.246 0.003-0.424 0-0.841-0.027-1.247-0.079-1.718 1.718-3.77 2.027-5.753 2.072v-0.421c1.071-0.525 2-1.48 2-2.572 0-0.152-0.012-0.302-0.034-0.448-1.809-1.192-2.966-3.012-2.966-5.052 0-3.59 3.582-6.5 8-6.5z"></path>
</svg>
<svg id="icon-download2" width="16" height="16" viewBox="0 0 16 16" x="26" y="0">
<path d="M14 8h-2.5l-3.5 3.5-3.5-3.5h-2.5l-2 4v1h16v-1l-2-4zM0 14h16v1h-16v-1zM9 5v-4h-2v4h-3.5l4.5 4.5 4.5-4.5h-3.5z"></path>
</svg>
<svg id="icon-upload2" width="16" height="16" viewBox="0 0 16 16" x="52" y="0">
<path d="M0 14h16v1h-16zM16 12v1h-16v-1l2-4h4v2h4v-2h4zM3.5 5l4.5-4.5 4.5 4.5h-3.5v4h-2v-4z"></path>
</svg>
<svg id="icon-eye" width="16" height="16" viewBox="0 0 16 16" x="78" y="0">
<path d="M8 3c-3.489 0-6.514 2.032-8 5 1.486 2.968 4.511 5 8 5s6.514-2.032 8-5c-1.486-2.968-4.511-5-8-5zM11.945 5.652c0.94 0.6 1.737 1.403 2.335 2.348-0.598 0.946-1.395 1.749-2.335 2.348-1.181 0.753-2.545 1.152-3.944 1.152s-2.763-0.398-3.945-1.152c-0.94-0.6-1.737-1.403-2.335-2.348 0.598-0.946 1.395-1.749 2.335-2.348 0.061-0.039 0.123-0.077 0.185-0.114-0.156 0.427-0.241 0.888-0.241 1.369 0 2.209 1.791 4 4 4s4-1.791 4-4c0-0.481-0.085-0.942-0.241-1.369 0.062 0.037 0.124 0.075 0.185 0.114v0zM8 6.5c0 0.828-0.672 1.5-1.5 1.5s-1.5-0.672-1.5-1.5 0.672-1.5 1.5-1.5 1.5 0.672 1.5 1.5z"></path>
</svg>
<svg id="icon-eye-blocked" width="16" height="16" viewBox="0 0 16 16" x="104" y="0">
<path d="M14.78 0.22c-0.293-0.293-0.768-0.293-1.061 0l-3.159 3.159c-0.812-0.246-1.671-0.378-2.561-0.378-3.489 0-6.514 2.032-8 5 0.643 1.283 1.573 2.391 2.703 3.236l-2.484 2.484c-0.293 0.293-0.293 0.768 0 1.061 0.146 0.146 0.338 0.22 0.53 0.22s0.384-0.073 0.53-0.22l13.5-13.5c0.293-0.293 0.293-0.768 0-1.061zM6.5 5c0.66 0 1.22 0.426 1.421 1.019l-1.902 1.902c-0.592-0.201-1.019-0.761-1.019-1.421 0-0.828 0.672-1.5 1.5-1.5zM1.721 8c0.598-0.946 1.395-1.749 2.335-2.348 0.061-0.039 0.123-0.077 0.185-0.114-0.156 0.427-0.241 0.888-0.241 1.369 0 0.858 0.27 1.652 0.73 2.303l-0.952 0.952c-0.819-0.576-1.519-1.311-2.057-2.162z"></path>
<path d="M12 6.906c0-0.424-0.066-0.833-0.189-1.217l-5.028 5.028c0.384 0.123 0.793 0.189 1.217 0.189 2.209 0 4-1.791 4-4z"></path>
<path d="M12.969 4.531l-1.084 1.084c0.020 0.012 0.040 0.024 0.059 0.037 0.94 0.6 1.737 1.403 2.335 2.348-0.598 0.946-1.395 1.749-2.335 2.348-1.181 0.753-2.545 1.152-3.944 1.152-0.604 0-1.202-0.074-1.781-0.219l-1.201 1.201c0.933 0.335 1.937 0.518 2.982 0.518 3.489 0 6.514-2.032 8-5-0.703-1.405-1.752-2.6-3.031-3.469z"></path>
</svg>
<svg id="icon-star-full" width="16" height="16" viewBox="0 0 16 16" x="130" y="0">
<path d="M16 6.204l-5.528-0.803-2.472-5.009-2.472 5.009-5.528 0.803 4 3.899-0.944 5.505 4.944-2.599 4.944 2.599-0.944-5.505 4-3.899z"></path>
</svg>
<svg id="icon-heart" width="16" height="16" viewBox="0 0 16 16" x="156" y="0">
<path d="M11.8 1c-1.682 0-3.129 1.368-3.799 2.797-0.671-1.429-2.118-2.797-3.8-2.797-2.318 0-4.2 1.882-4.2 4.2 0 4.716 4.758 5.953 8 10.616 3.065-4.634 8-6.050 8-10.616 0-2.319-1.882-4.2-4.2-4.2z"></path>
</svg>
<svg id="icon-happy" width="16" height="16" viewBox="0 0 16 16" x="182" y="0">
<path d="M8 16c4.418 0 8-3.582 8-8s-3.582-8-8-8-8 3.582-8 8 3.582 8 8 8zM8 1.5c3.59 0 6.5 2.91 6.5 6.5s-2.91 6.5-6.5 6.5-6.5-2.91-6.5-6.5 2.91-6.5 6.5-6.5zM8 9.356c1.812 0 3.535-0.481 5-1.327-0.228 2.788-2.393 4.971-5 4.971s-4.772-2.186-5-4.973c1.465 0.845 3.188 1.329 5 1.329zM4 5.5c0-0.828 0.448-1.5 1-1.5s1 0.672 1 1.5c0 0.828-0.448 1.5-1 1.5s-1-0.672-1-1.5zM10 5.5c0-0.828 0.448-1.5 1-1.5s1 0.672 1 1.5c0 0.828-0.448 1.5-1 1.5s-1-0.672-1-1.5z"></path>
</svg>
<svg id="icon-happy2" width="16" height="16" viewBox="0 0 16 16" x="208" y="0">
<path d="M8 0c-4.418 0-8 3.582-8 8s3.582 8 8 8 8-3.582 8-8-3.582-8-8-8zM11 4c0.552 0 1 0.672 1 1.5s-0.448 1.5-1 1.5-1-0.672-1-1.5 0.448-1.5 1-1.5zM5 4c0.552 0 1 0.672 1 1.5s-0.448 1.5-1 1.5-1-0.672-1-1.5 0.448-1.5 1-1.5zM8 14c-2.607 0-4.772-2.186-5-4.973 1.465 0.846 3.188 1.329 5 1.329s3.535-0.481 5-1.327c-0.228 2.788-2.393 4.971-5 4.971z"></path>
</svg>
<svg id="icon-smile" width="16" height="16" viewBox="0 0 16 16" x="234" y="0">
<path d="M8 16c4.418 0 8-3.582 8-8s-3.582-8-8-8-8 3.582-8 8 3.582 8 8 8zM8 1.5c3.59 0 6.5 2.91 6.5 6.5s-2.91 6.5-6.5 6.5-6.5-2.91-6.5-6.5 2.91-6.5 6.5-6.5zM4 5c0-0.552 0.448-1 1-1s1 0.448 1 1c0 0.552-0.448 1-1 1s-1-0.448-1-1zM10 5c0-0.552 0.448-1 1-1s1 0.448 1 1c0 0.552-0.448 1-1 1s-1-0.448-1-1zM11.002 9.801l1.286 0.772c-0.874 1.454-2.467 2.427-4.288 2.427s-3.413-0.973-4.288-2.427l1.286-0.772c0.612 1.018 1.727 1.699 3.002 1.699s2.389-0.681 3.002-1.699z"></path>
</svg>
<svg id="icon-smile2" width="16" height="16" viewBox="0 0 16 16" x="260" y="0">
<path d="M8 0c-4.418 0-8 3.582-8 8s3.582 8 8 8 8-3.582 8-8-3.582-8-8-8zM11 4c0.552 0 1 0.448 1 1s-0.448 1-1 1-1-0.448-1-1 0.448-1 1-1zM5 4c0.552 0 1 0.448 1 1s-0.448 1-1 1-1-0.448-1-1 0.448-1 1-1zM8 13c-1.82 0-3.413-0.973-4.288-2.427l1.286-0.772c0.612 1.018 1.727 1.699 3.002 1.699s2.389-0.681 3.002-1.699l1.286 0.772c-0.874 1.454-2.467 2.427-4.288 2.427z"></path>
</svg>
<svg id="icon-tongue" width="16" height="16" viewBox="0 0 16 16" x="286" y="0">
<path d="M8 16c4.418 0 8-3.582 8-8s-3.582-8-8-8-8 3.582-8 8 3.582 8 8 8zM8 1.5c3.59 0 6.5 2.91 6.5 6.5s-2.91 6.5-6.5 6.5-6.5-2.91-6.5-6.5 2.91-6.5 6.5-6.5zM4 5c0-0.552 0.448-1 1-1s1 0.448 1 1c0 0.552-0.448 1-1 1s-1-0.448-1-1zM10 5c0-0.552 0.448-1 1-1s1 0.448 1 1c0 0.552-0.448 1-1 1s-1-0.448-1-1zM12 9v1h-1v1.5c0 0.828-0.672 1.5-1.5 1.5s-1.5-0.672-1.5-1.5v-1.5h-4v-1h8z"></path>
</svg>
<svg id="icon-tongue2" width="16" height="16" viewBox="0 0 16 16" x="312" y="0">
<path d="M8 0c-4.418 0-8 3.582-8 8s3.582 8 8 8 8-3.582 8-8-3.582-8-8-8zM5 4c0.552 0 1 0.448 1 1s-0.448 1-1 1-1-0.448-1-1 0.448-1 1-1zM12 10h-1v1.5c0 0.828-0.672 1.5-1.5 1.5s-1.5-0.672-1.5-1.5v-1.5h-4v-1h8v1zM11 6c-0.552 0-1-0.448-1-1s0.448-1 1-1 1 0.448 1 1-0.448 1-1 1z"></path>
</svg>
<svg id="icon-sad" width="16" height="16" viewBox="0 0 16 16" x="338" y="0">
<path d="M8 16c4.418 0 8-3.582 8-8s-3.582-8-8-8-8 3.582-8 8 3.582 8 8 8zM8 1.5c3.59 0 6.5 2.91 6.5 6.5s-2.91 6.5-6.5 6.5-6.5-2.91-6.5-6.5 2.91-6.5 6.5-6.5zM4 5c0-0.552 0.448-1 1-1s1 0.448 1 1c0 0.552-0.448 1-1 1s-1-0.448-1-1zM10 5c0-0.552 0.448-1 1-1s1 0.448 1 1c0 0.552-0.448 1-1 1s-1-0.448-1-1zM4.998 12.199l-1.286-0.772c0.874-1.454 2.467-2.427 4.288-2.427s3.413 0.973 4.288 2.427l-1.286 0.772c-0.612-1.018-1.727-1.699-3.002-1.699s-2.389 0.681-3.002 1.699z"></path>
</svg>
<svg id="icon-sad2" width="16" height="16" viewBox="0 0 16 16" x="364" y="0">
<path d="M8 0c-4.418 0-8 3.582-8 8s3.582 8 8 8 8-3.582 8-8-3.582-8-8-8zM11 4c0.552 0 1 0.448 1 1s-0.448 1-1 1-1-0.448-1-1 0.448-1 1-1zM5 4c0.552 0 1 0.448 1 1s-0.448 1-1 1-1-0.448-1-1 0.448-1 1-1zM11.002 12.199c-0.612-1.018-1.727-1.699-3.002-1.699s-2.389 0.681-3.002 1.699l-1.286-0.772c0.874-1.454 2.467-2.427 4.288-2.427s3.414 0.973 4.288 2.427l-1.286 0.772z"></path>
</svg>
<svg id="icon-wink" width="16" height="16" viewBox="0 0 16 16" x="390" y="0">
<path d="M8 16c4.418 0 8-3.582 8-8s-3.582-8-8-8-8 3.582-8 8 3.582 8 8 8zM8 1.5c3.59 0 6.5 2.91 6.5 6.5s-2.91 6.5-6.5 6.5-6.5-2.91-6.5-6.5 2.91-6.5 6.5-6.5zM8.48 11.11c2.191-0.433 3.892-1.43 4.507-2.759-0.338 2.624-2.524 4.649-5.17 4.649-1.863 0-3.498-1.004-4.42-2.515 1.1 0.86 3.040 1.028 5.083 0.625zM10 5.5c0-0.828 0.448-1.5 1-1.5s1 0.672 1 1.5c0 0.828-0.448 1.5-1 1.5s-1-0.672-1-1.5zM5.5 5.805c-0.653 0-1.208 0.245-1.414 0.586-0.055-0.092-0.086-0.503-0.086-0.605 0-0.485 0.672-0.879 1.5-0.879s1.5 0.394 1.5 0.879c0 0.103-0.030 0.514-0.086 0.605-0.206-0.341-0.761-0.586-1.414-0.586z"></path>
</svg>
<svg id="icon-wink2" width="16" height="16" viewBox="0 0 16 16" x="0" y="26">
<path d="M8 0c-4.418 0-8 3.582-8 8s3.582 8 8 8c4.418 0 8-3.582 8-8s-3.582-8-8-8zM11 4c0.552 0 1 0.672 1 1.5s-0.448 1.5-1 1.5-1-0.672-1-1.5 0.448-1.5 1-1.5zM5.5 4.876c0.932 0 1.594 0.349 1.594 0.895 0 0.116 0.060 0.672-0.003 0.775-0.232-0.384-0.856-0.659-1.591-0.659s-1.359 0.275-1.591 0.659c-0.062-0.103-0.003-0.659-0.003-0.775 0-0.546 0.662-0.895 1.594-0.895zM7.818 13c-1.863 0-3.498-1.004-4.42-2.515 1.1 0.86 3.040 1.028 5.083 0.625 2.191-0.433 3.892-1.43 4.507-2.759-0.338 2.624-2.524 4.649-5.17 4.649z"></path>
</svg>
<svg id="icon-grin" width="16" height="16" viewBox="0 0 16 16" x="26" y="26">
<path d="M8 16c4.418 0 8-3.582 8-8s-3.582-8-8-8-8 3.582-8 8 3.582 8 8 8zM8 1.5c3.59 0 6.5 2.91 6.5 6.5s-2.91 6.5-6.5 6.5-6.5-2.91-6.5-6.5 2.91-6.5 6.5-6.5zM3 8v1c0 2.2 1.8 4 4 4h2c2.2 0 4-1.8 4-4v-1h-10zM6 11.828c-0.415-0.148-0.796-0.388-1.118-0.71-0.569-0.569-0.882-1.321-0.882-2.118h2v2.828zM9 12h-2v-3h2v3zM11.118 11.118c-0.322 0.322-0.703 0.562-1.118 0.71v-2.828h2c0 0.797-0.313 1.549-0.882 2.118zM3.521 6c0 0 0 0 0 0 0.153 0 0.283-0.11 0.308-0.261 0.096-0.573 0.589-0.989 1.171-0.989s1.074 0.416 1.171 0.989c0.025 0.151 0.156 0.261 0.308 0.261s0.283-0.11 0.308-0.261c0.017-0.101 0.025-0.202 0.025-0.302 0-0.999-0.813-1.813-1.813-1.813s-1.813 0.813-1.813 1.813c0 0.1 0.009 0.201 0.025 0.302 0.025 0.151 0.156 0.261 0.308 0.261zM9.521 6c0 0 0 0 0 0 0.153 0 0.283-0.11 0.308-0.261 0.096-0.573 0.589-0.989 1.171-0.989s1.074 0.416 1.171 0.989c0.025 0.151 0.156 0.261 0.308 0.261s0.283-0.11 0.308-0.261c0.017-0.101 0.025-0.202 0.025-0.302 0-0.999-0.813-1.813-1.813-1.813s-1.813 0.813-1.813 1.813c0 0.1 0.008 0.201 0.025 0.302 0.025 0.151 0.156 0.261 0.308 0.261z"></path>
</svg>
<svg id="icon-grin2" width="16" height="16" viewBox="0 0 16 16" x="52" y="26">
<path d="M8 0c-4.418 0-8 3.582-8 8s3.582 8 8 8c4.418 0 8-3.582 8-8s-3.582-8-8-8zM11 3.688c0.999 0 1.813 0.813 1.813 1.813 0 0.1-0.009 0.201-0.025 0.302-0.025 0.151-0.156 0.261-0.308 0.261s-0.283-0.11-0.308-0.261c-0.096-0.573-0.589-0.833-1.171-0.833s-1.074 0.26-1.171 0.833c-0.025 0.151-0.156 0.261-0.308 0.261-0 0 0 0-0 0-0.153 0-0.283-0.11-0.308-0.261-0.017-0.101-0.025-0.202-0.025-0.302 0-0.999 0.813-1.813 1.813-1.813zM5 3.688c0.999 0 1.813 0.813 1.813 1.813 0 0.1-0.009 0.201-0.025 0.302-0.025 0.151-0.156 0.261-0.308 0.261s-0.283-0.11-0.308-0.261c-0.096-0.573-0.589-0.833-1.171-0.833s-1.074 0.26-1.171 0.833c-0.025 0.151-0.156 0.261-0.308 0.261 0 0 0 0 0 0-0.153 0-0.283-0.11-0.308-0.261-0.017-0.101-0.025-0.202-0.025-0.302 0-0.999 0.813-1.813 1.813-1.813zM3 9h3v3.873c-1.72-0.447-3-2.018-3-3.873zM7 13v-4h2v4h-2zM10 12.873v-3.873h3c0 1.855-1.28 3.426-3 3.873z"></path>
</svg>
<svg id="icon-cool" width="16" height="16" viewBox="0 0 16 16" x="78" y="26">
<path d="M8 16c4.418 0 8-3.582 8-8s-3.582-8-8-8-8 3.582-8 8 3.582 8 8 8zM8 1.5c3.59 0 6.5 2.91 6.5 6.5s-2.91 6.5-6.5 6.5-6.5-2.91-6.5-6.5 2.91-6.5 6.5-6.5zM12.5 4c0.275 0 0.5 0.225 0.5 0.5v1.5c0 0.55-0.45 1-1 1h-2c-0.55 0-1-0.45-1-1h-2c0 0.55-0.45 1-1 1h-2c-0.55 0-1-0.45-1-1v-1.5c0-0.275 0.225-0.5 0.5-0.5h3c0.275 0 0.5 0.225 0.5 0.5v0.5h2v-0.5c0-0.275 0.225-0.5 0.5-0.5h3zM8 12c1.456 0 2.731-0.778 3.43-1.942l0.857 0.515c-0.874 1.454-2.467 2.427-4.288 2.427-0.757 0-1.475-0.169-2.118-0.47l0.518-0.864c0.49 0.214 1.031 0.334 1.6 0.334z"></path>
</svg>
<svg id="icon-cool2" width="16" height="16" viewBox="0 0 16 16" x="104" y="26">
<path d="M8 0c-4.418 0-8 3.582-8 8s3.582 8 8 8c4.418 0 8-3.582 8-8s-3.582-8-8-8zM8 13c-0.757 0-1.475-0.169-2.118-0.47l0.518-0.864c0.49 0.214 1.031 0.334 1.6 0.334 1.456 0 2.731-0.778 3.43-1.942l0.858 0.515c-0.874 1.454-2.467 2.427-4.288 2.427zM13 6c0 0.55-0.45 1-1 1h-2c-0.55 0-1-0.45-1-1h-2c0 0.55-0.45 1-1 1h-2c-0.55 0-1-0.45-1-1v-1.5c0-0.275 0.225-0.5 0.5-0.5h3c0.275 0 0.5 0.225 0.5 0.5v0.5h2v-0.5c0-0.275 0.225-0.5 0.5-0.5h3c0.275 0 0.5 0.225 0.5 0.5v1.5z"></path>
</svg>
<svg id="icon-angry" width="16" height="16" viewBox="0 0 16 16" x="130" y="26">
<path d="M8 16c4.418 0 8-3.582 8-8s-3.582-8-8-8-8 3.582-8 8 3.582 8 8 8zM8 1.5c3.59 0 6.5 2.91 6.5 6.5s-2.91 6.5-6.5 6.5-6.5-2.91-6.5-6.5 2.91-6.5 6.5-6.5zM11.002 12.199c-0.612-1.018-1.727-1.699-3.002-1.699s-2.389 0.681-3.002 1.699l-1.286-0.772c0.874-1.454 2.467-2.427 4.288-2.427s3.414 0.973 4.288 2.427l-1.286 0.772zM11.985 4.379c0.067 0.268-0.096 0.539-0.364 0.606-0.275 0.070-0.602 0.189-0.89 0.334 0.166 0.179 0.268 0.418 0.268 0.681 0 0.552-0.448 1-1 1s-1-0.448-1-1c0-0.018 0.001-0.036 0.002-0.054 0.032-0.741 0.706-1.234 1.275-1.518 0.543-0.271 1.080-0.407 1.102-0.413 0.268-0.067 0.539 0.096 0.606 0.364zM4.015 4.379c0.067-0.268 0.338-0.431 0.606-0.364 0.023 0.006 0.559 0.141 1.102 0.413 0.568 0.284 1.243 0.776 1.275 1.518 0.001 0.018 0.002 0.036 0.002 0.054 0 0.552-0.448 1-1 1s-1-0.448-1-1c0-0.263 0.102-0.503 0.268-0.681-0.288-0.144-0.614-0.264-0.89-0.334-0.268-0.067-0.431-0.338-0.364-0.606z"></path>
</svg>
<svg id="icon-angry2" width="16" height="16" viewBox="0 0 16 16" x="156" y="26">
<path d="M8 0c-4.418 0-8 3.582-8 8s3.582 8 8 8 8-3.582 8-8-3.582-8-8-8zM9.001 5.946c0.032-0.741 0.706-1.234 1.275-1.518 0.543-0.271 1.080-0.407 1.102-0.413 0.268-0.067 0.539 0.096 0.606 0.364s-0.096 0.539-0.364 0.606c-0.275 0.070-0.602 0.189-0.89 0.334 0.166 0.179 0.268 0.418 0.268 0.681 0 0.552-0.448 1-1 1s-1-0.448-1-1c0-0.018 0.001-0.036 0.002-0.054zM4.015 4.379c0.067-0.268 0.338-0.431 0.606-0.364 0.023 0.006 0.559 0.141 1.102 0.413 0.568 0.284 1.243 0.776 1.275 1.518 0.001 0.018 0.002 0.036 0.002 0.054 0 0.552-0.448 1-1 1s-1-0.448-1-1c0-0.263 0.102-0.503 0.268-0.681-0.288-0.144-0.614-0.264-0.89-0.334-0.268-0.067-0.431-0.338-0.364-0.606zM11.002 12.199c-0.612-1.018-1.727-1.699-3.002-1.699s-2.389 0.681-3.002 1.699l-1.286-0.772c0.874-1.454 2.467-2.427 4.288-2.427s3.414 0.973 4.288 2.427l-1.286 0.772z"></path>
</svg>
<svg id="icon-evil" width="16" height="16" viewBox="0 0 16 16" x="182" y="26">
<path d="M10 7c-0.552 0-1-0.448-1-1 0-0.018 0.001-0.036 0.002-0.054 0.032-0.741 0.706-1.234 1.275-1.518 0.543-0.271 1.080-0.407 1.102-0.413 0.268-0.067 0.539 0.096 0.606 0.364s-0.096 0.539-0.364 0.606c-0.275 0.070-0.602 0.189-0.89 0.334 0.166 0.179 0.268 0.418 0.268 0.681 0 0.552-0.448 1-1 1zM4.379 4.985c-0.268-0.067-0.431-0.338-0.364-0.606s0.338-0.431 0.606-0.364c0.023 0.006 0.559 0.141 1.102 0.413 0.568 0.284 1.243 0.776 1.275 1.518 0.001 0.018 0.002 0.036 0.002 0.054 0 0.552-0.448 1-1 1s-1-0.448-1-1c0-0.263 0.102-0.503 0.268-0.681-0.288-0.144-0.614-0.264-0.89-0.334zM8 11.5c1.274 0 2.389-0.681 3.002-1.699l1.286 0.772c-0.874 1.454-2.467 2.427-4.288 2.427s-3.413-0.973-4.288-2.427l1.286-0.772c0.612 1.018 1.727 1.699 3.002 1.699zM16 1c0-0.711-0.149-1.387-0.416-2-0.525 1.201-1.507 2.155-2.726 2.643-1.347-1.031-3.030-1.643-4.857-1.643s-3.51 0.613-4.857 1.643c-1.22-0.488-2.202-1.443-2.726-2.643-0.268 0.613-0.416 1.289-0.416 2 0 1.15 0.388 2.208 1.040 3.053-0.662 1.165-1.040 2.512-1.040 3.947 0 4.418 3.582 8 8 8s8-3.582 8-8c0-1.436-0.378-2.783-1.040-3.947 0.652-0.845 1.040-1.903 1.040-3.053zM8 14.5c-3.59 0-6.5-2.91-6.5-6.5s2.91-6.5 6.5-6.5 6.5 2.91 6.5 6.5-2.91 6.5-6.5 6.5z"></path>
</svg>
<svg id="icon-evil2" width="16" height="16" viewBox="0 0 16 16" x="208" y="26">
<path d="M16 1c0-0.711-0.149-1.387-0.416-2-0.525 1.201-1.507 2.155-2.726 2.643-1.347-1.031-3.030-1.643-4.857-1.643s-3.51 0.613-4.857 1.643c-1.22-0.488-2.202-1.443-2.726-2.643-0.268 0.613-0.416 1.289-0.416 2 0 1.15 0.388 2.208 1.040 3.053-0.662 1.165-1.040 2.512-1.040 3.947 0 4.418 3.582 8 8 8s8-3.582 8-8c0-1.436-0.378-2.783-1.040-3.947 0.652-0.845 1.040-1.903 1.040-3.053zM9.001 5.946c0.032-0.741 0.706-1.234 1.275-1.518 0.543-0.271 1.080-0.407 1.102-0.413 0.268-0.067 0.539 0.096 0.606 0.364s-0.096 0.539-0.364 0.606c-0.275 0.070-0.602 0.189-0.89 0.334 0.166 0.179 0.268 0.418 0.268 0.681 0 0.552-0.448 1-1 1s-1-0.448-1-1c0-0.018 0.001-0.036 0.002-0.054zM4.015 4.379c0.067-0.268 0.338-0.431 0.606-0.364 0.023 0.006 0.559 0.141 1.102 0.413 0.568 0.284 1.243 0.776 1.275 1.518 0.001 0.018 0.002 0.036 0.002 0.054 0 0.552-0.448 1-1 1s-1-0.448-1-1c0-0.263 0.102-0.503 0.268-0.681-0.288-0.144-0.614-0.264-0.89-0.334-0.268-0.067-0.431-0.338-0.364-0.606zM8 13c-1.82 0-3.413-0.973-4.288-2.427l1.286-0.772c0.612 1.018 1.727 1.699 3.002 1.699s2.389-0.681 3.002-1.699l1.286 0.772c-0.874 1.454-2.467 2.427-4.288 2.427z"></path>
</svg>
<svg id="icon-shocked" width="16" height="16" viewBox="0 0 16 16" x="234" y="26">
<path d="M8 16c4.418 0 8-3.582 8-8s-3.582-8-8-8-8 3.582-8 8 3.582 8 8 8zM8 1.5c3.59 0 6.5 2.91 6.5 6.5s-2.91 6.5-6.5 6.5-6.5-2.91-6.5-6.5 2.91-6.5 6.5-6.5zM6 11c0-1.105 0.895-2 2-2s2 0.895 2 2c0 1.105-0.895 2-2 2s-2-0.895-2-2zM10 5.5c0-0.828 0.448-1.5 1-1.5s1 0.672 1 1.5c0 0.828-0.448 1.5-1 1.5s-1-0.672-1-1.5zM4 5.5c0-0.828 0.448-1.5 1-1.5s1 0.672 1 1.5c0 0.828-0.448 1.5-1 1.5s-1-0.672-1-1.5z"></path>
</svg>
<svg id="icon-shocked2" width="16" height="16" viewBox="0 0 16 16" x="260" y="26">
<path d="M8 0c-4.418 0-8 3.582-8 8s3.582 8 8 8 8-3.582 8-8-3.582-8-8-8zM5 7c-0.552 0-1-0.672-1-1.5s0.448-1.5 1-1.5 1 0.672 1 1.5-0.448 1.5-1 1.5zM8 13c-1.105 0-2-0.895-2-2s0.895-2 2-2c1.105 0 2 0.895 2 2s-0.895 2-2 2zM11 7c-0.552 0-1-0.672-1-1.5s0.448-1.5 1-1.5 1 0.672 1 1.5-0.448 1.5-1 1.5z"></path>
</svg>
<svg id="icon-baffled" width="16" height="16" viewBox="0 0 16 16" x="286" y="26">
<path d="M8 16c4.418 0 8-3.582 8-8s-3.582-8-8-8-8 3.582-8 8 3.582 8 8 8zM8 1.5c3.59 0 6.5 2.91 6.5 6.5s-2.91 6.5-6.5 6.5-6.5-2.91-6.5-6.5 2.91-6.5 6.5-6.5z"></path>
<path d="M6 6.5c0 0.276-0.224 0.5-0.5 0.5s-0.5-0.224-0.5-0.5c0-0.276 0.224-0.5 0.5-0.5s0.5 0.224 0.5 0.5z"></path>
<path d="M5.5 5c0.828 0 1.5 0.672 1.5 1.5s-0.672 1.5-1.5 1.5-1.5-0.672-1.5-1.5 0.672-1.5 1.5-1.5zM5.5 4c-1.378 0-2.5 1.122-2.5 2.5s1.122 2.5 2.5 2.5 2.5-1.122 2.5-2.5-1.122-2.5-2.5-2.5v0z"></path>
<path d="M11 6.5c0 0.276-0.224 0.5-0.5 0.5s-0.5-0.224-0.5-0.5c0-0.276 0.224-0.5 0.5-0.5s0.5 0.224 0.5 0.5z"></path>
<path d="M10.5 5c0.828 0 1.5 0.672 1.5 1.5s-0.672 1.5-1.5 1.5-1.5-0.672-1.5-1.5 0.672-1.5 1.5-1.5zM10.5 4c-1.379 0-2.5 1.122-2.5 2.5s1.121 2.5 2.5 2.5 2.5-1.122 2.5-2.5-1.121-2.5-2.5-2.5v0z"></path>
<path d="M6 11h4v1h-4v-1z"></path>
</svg>
<svg id="icon-baffled2" width="16" height="16" viewBox="0 0 16 16" x="312" y="26">
<path d="M6 6.5c0 0.276-0.224 0.5-0.5 0.5s-0.5-0.224-0.5-0.5 0.224-0.5 0.5-0.5 0.5 0.224 0.5 0.5z"></path>
<path d="M11 6.5c0 0.276-0.224 0.5-0.5 0.5s-0.5-0.224-0.5-0.5 0.224-0.5 0.5-0.5 0.5 0.224 0.5 0.5z"></path>
<path d="M8 0c-4.418 0-8 3.582-8 8s3.582 8 8 8 8-3.582 8-8-3.582-8-8-8zM4 6.5c0-0.828 0.672-1.5 1.5-1.5s1.5 0.672 1.5 1.5-0.672 1.5-1.5 1.5-1.5-0.672-1.5-1.5zM10 12h-4v-1h4v1zM10.5 8c-0.828 0-1.5-0.672-1.5-1.5s0.672-1.5 1.5-1.5 1.5 0.672 1.5 1.5-0.672 1.5-1.5 1.5z"></path>
</svg>
<svg id="icon-confused" width="16" height="16" viewBox="0 0 16 16" x="338" y="26">
<path d="M8 16c4.418 0 8-3.582 8-8s-3.582-8-8-8-8 3.582-8 8 3.582 8 8 8zM8 1.5c3.59 0 6.5 2.91 6.5 6.5s-2.91 6.5-6.5 6.5-6.5-2.91-6.5-6.5 2.91-6.5 6.5-6.5zM4 5c0-0.552 0.448-1 1-1s1 0.448 1 1c0 0.552-0.448 1-1 1s-1-0.448-1-1zM10 5c0-0.552 0.448-1 1-1s1 0.448 1 1c0 0.552-0.448 1-1 1s-1-0.448-1-1zM11.345 10h1.014c0.144 1.133-0.507 2.258-1.624 2.665-1.295 0.472-2.733-0.199-3.204-1.494-0.283-0.777-1.145-1.179-1.923-0.896-0.712 0.259-1.109 1.005-0.953 1.725h-1.013c-0.144-1.133 0.507-2.258 1.624-2.665 1.295-0.472 2.733 0.199 3.204 1.494 0.283 0.777 1.145 1.179 1.923 0.896 0.712-0.259 1.109-1.005 0.953-1.725z"></path>
</svg>
<svg id="icon-confused2" width="16" height="16" viewBox="0 0 16 16" x="364" y="26">
<path d="M8 0c-4.418 0-8 3.582-8 8s3.582 8 8 8c4.418 0 8-3.582 8-8s-3.582-8-8-8zM11 4c0.552 0 1 0.448 1 1s-0.448 1-1 1-1-0.448-1-1c0-0.552 0.448-1 1-1zM5 4c0.552 0 1 0.448 1 1s-0.448 1-1 1-1-0.448-1-1c0-0.552 0.448-1 1-1zM10.735 12.665c-1.295 0.472-2.733-0.199-3.204-1.494-0.283-0.777-1.145-1.179-1.923-0.896-0.712 0.259-1.109 1.005-0.953 1.725h-1.013c-0.144-1.133 0.507-2.258 1.624-2.665 1.295-0.472 2.733 0.199 3.204 1.494 0.283 0.777 1.145 1.179 1.923 0.896 0.712-0.259 1.109-1.005 0.953-1.725h1.014c0.144 1.133-0.507 2.258-1.624 2.665z"></path>
</svg>
<svg id="icon-neutral" width="16" height="16" viewBox="0 0 16 16" x="390" y="26">
<path d="M8 16c4.418 0 8-3.582 8-8s-3.582-8-8-8-8 3.582-8 8 3.582 8 8 8zM8 1.5c3.59 0 6.5 2.91 6.5 6.5s-2.91 6.5-6.5 6.5-6.5-2.91-6.5-6.5 2.91-6.5 6.5-6.5zM4 5c0 0.552 0.448 1 1 1s1-0.448 1-1-0.448-1-1-1-1 0.448-1 1zM10 5c0 0.552 0.448 1 1 1s1-0.448 1-1-0.448-1-1-1-1 0.448-1 1zM6 11h4v1h-4v-1z"></path>
</svg>
<svg id="icon-neutral2" width="16" height="16" viewBox="0 0 16 16" x="0" y="52">
<path d="M8 0c-4.418 0-8 3.582-8 8s3.582 8 8 8c4.418 0 8-3.582 8-8s-3.582-8-8-8zM10 12h-4v-1h4v1zM11 4c0.552 0 1 0.448 1 1s-0.448 1-1 1-1-0.448-1-1c0-0.552 0.448-1 1-1zM5 4c0.552 0 1 0.448 1 1s-0.448 1-1 1-1-0.448-1-1c0-0.552 0.448-1 1-1z"></path>
</svg>
<svg id="icon-hipster" width="16" height="16" viewBox="0 0 16 16" x="26" y="52">
<path d="M8 16c4.418 0 8-3.582 8-8s-3.582-8-8-8-8 3.582-8 8 3.582 8 8 8zM8 1.5c3.59 0 6.5 2.91 6.5 6.5s-2.91 6.5-6.5 6.5-6.5-2.91-6.5-6.5 2.91-6.5 6.5-6.5zM4 5c0-0.552 0.448-1 1-1s1 0.448 1 1-0.448 1-1 1-1-0.448-1-1zM10 5c0-0.552 0.448-1 1-1s1 0.448 1 1-0.448 1-1 1-1-0.448-1-1z"></path>
<path d="M10.561 8.439c-0.586-0.586-1.536-0.586-2.121 0s-0.586 1.536 0 2.121c0.019 0.019 0.038 0.037 0.058 0.055 1.352 1.227 4.503-0.029 4.503-1.615-0.969 0.625-1.726 0.153-2.439-0.561z"></path>
<path d="M5.439 8.439c0.586-0.586 1.536-0.586 2.121 0s0.586 1.536 0 2.121c-0.019 0.019-0.038 0.037-0.058 0.055-1.352 1.227-4.503-0.029-4.503-1.615 0.969 0.625 1.726 0.153 2.439-0.561z"></path>
</svg>
<svg id="icon-hipster2" width="16" height="16" viewBox="0 0 16 16" x="52" y="52">
<path d="M8 0c-4.418 0-8 3.582-8 8s3.582 8 8 8 8-3.582 8-8-3.582-8-8-8zM11 4c0.552 0 1 0.448 1 1s-0.448 1-1 1-1-0.448-1-1 0.448-1 1-1zM5 4c0.552 0 1 0.448 1 1s-0.448 1-1 1-1-0.448-1-1 0.448-1 1-1zM8.497 10.615c-0.020-0.018-0.039-0.036-0.058-0.055-0.293-0.293-0.439-0.677-0.439-1.060-0 0.384-0.146 0.768-0.439 1.060-0.019 0.019-0.038 0.037-0.058 0.055-1.352 1.227-4.503-0.029-4.503-1.615 0.969 0.625 1.726 0.153 2.439-0.561 0.586-0.586 1.536-0.586 2.121 0 0.293 0.293 0.439 0.677 0.439 1.060 0-0.384 0.146-0.768 0.439-1.060 0.586-0.586 1.536-0.586 2.121 0 0.713 0.714 1.471 1.186 2.439 0.561 0 1.586-3.151 2.842-4.503 1.615z"></path>
</svg>
<svg id="icon-wondering" width="16" height="16" viewBox="0 0 16 16" x="78" y="52">
<path d="M8 16c4.418 0 8-3.582 8-8s-3.582-8-8-8-8 3.582-8 8 3.582 8 8 8zM8 1.5c3.59 0 6.5 2.91 6.5 6.5s-2.91 6.5-6.5 6.5-6.5-2.91-6.5-6.5 2.91-6.5 6.5-6.5zM11.652 9.4l0.351 1.2-6.828 2-0.351-1.2zM4 5c0-0.552 0.448-1 1-1s1 0.448 1 1c0 0.552-0.448 1-1 1s-1-0.448-1-1zM10 5c0-0.552 0.448-1 1-1s1 0.448 1 1c0 0.552-0.448 1-1 1s-1-0.448-1-1z"></path>
</svg>
<svg id="icon-wondering2" width="16" height="16" viewBox="0 0 16 16" x="104" y="52">
<path d="M8 0c-4.418 0-8 3.582-8 8s3.582 8 8 8 8-3.582 8-8-3.582-8-8-8zM11 4c0.552 0 1 0.448 1 1s-0.448 1-1 1-1-0.448-1-1 0.448-1 1-1zM4 5c0-0.552 0.448-1 1-1s1 0.448 1 1-0.448 1-1 1-1-0.448-1-1zM5.176 12.6l-0.351-1.2 6.828-2 0.351 1.2-6.828 2z"></path>
</svg>
<svg id="icon-sleepy" width="16" height="16" viewBox="0 0 16 16" x="130" y="52">
<path d="M8 16c4.418 0 8-3.582 8-8s-3.582-8-8-8-8 3.582-8 8 3.582 8 8 8zM8 1.5c3.59 0 6.5 2.91 6.5 6.5s-2.91 6.5-6.5 6.5-6.5-2.91-6.5-6.5 2.91-6.5 6.5-6.5z"></path>
<path d="M10 10.5c0 1.381-0.895 2.5-2 2.5s-2-1.119-2-2.5c0-1.381 0.895-2.5 2-2.5s2 1.119 2 2.5z"></path>
<path d="M6.5 5.313c-0.128 0-0.256-0.049-0.354-0.146-0.302-0.302-0.991-0.302-1.293 0-0.195 0.195-0.512 0.195-0.707 0s-0.195-0.512 0-0.707c0.696-0.696 2.011-0.696 2.707 0 0.195 0.195 0.195 0.512 0 0.707-0.098 0.098-0.226 0.146-0.354 0.146z"></path>
<path d="M11.5 5.313c-0.128 0-0.256-0.049-0.354-0.146-0.302-0.302-0.991-0.302-1.293 0-0.195 0.195-0.512 0.195-0.707 0s-0.195-0.512 0-0.707c0.696-0.696 2.011-0.696 2.707 0 0.195 0.195 0.195 0.512 0 0.707-0.098 0.098-0.226 0.146-0.354 0.146z"></path>
</svg>
<svg id="icon-sleepy2" width="16" height="16" viewBox="0 0 16 16" x="156" y="52">
<path d="M8 0c-4.418 0-8 3.582-8 8s3.582 8 8 8 8-3.582 8-8-3.582-8-8-8zM4.854 5.166c-0.195 0.195-0.512 0.195-0.707 0s-0.195-0.512 0-0.707c0.696-0.696 2.011-0.696 2.707 0 0.195 0.195 0.195 0.512 0 0.707-0.098 0.098-0.226 0.146-0.354 0.146s-0.256-0.049-0.354-0.146c-0.302-0.302-0.991-0.302-1.293 0zM8 13c-1.105 0-2-1.119-2-2.5s0.895-2.5 2-2.5 2 1.119 2 2.5-0.895 2.5-2 2.5zM11.854 5.166c-0.098 0.098-0.226 0.146-0.354 0.146s-0.256-0.049-0.354-0.146c-0.302-0.302-0.991-0.302-1.293 0-0.195 0.195-0.512 0.195-0.707 0s-0.195-0.512 0-0.707c0.696-0.696 2.011-0.696 2.707 0 0.195 0.195 0.195 0.512 0 0.707z"></path>
</svg>
<svg id="icon-frustrated" width="16" height="16" viewBox="0 0 16 16" x="182" y="52">
<path d="M5.724 4.428c-0.543-0.271-1.080-0.407-1.102-0.413-0.268-0.067-0.539 0.096-0.606 0.364s0.096 0.539 0.364 0.606c0.275 0.070 0.602 0.189 0.89 0.334-0.166 0.179-0.268 0.418-0.268 0.681 0 0.552 0.448 1 1 1s1-0.448 1-1c0-0.018-0.001-0.036-0.002-0.054-0.032-0.741-0.706-1.234-1.275-1.518z"></path>
<path d="M8 0c-4.418 0-8 3.582-8 8s3.582 8 8 8 8-3.582 8-8-3.582-8-8-8zM3.695 12.87c0.167 0.083 0.356 0.13 0.555 0.13h7.5c0.199 0 0.387-0.047 0.555-0.13-1.147 1.014-2.654 1.63-4.305 1.63s-3.158-0.616-4.305-1.63zM4 11.75v-1.5c0-0.136 0.114-0.25 0.25-0.25h1.75v2h-1.75c-0.136 0-0.25-0.114-0.25-0.25zM7 12v-2h2v2h-2zM10 12v-2h1.75c0.136 0 0.25 0.114 0.25 0.25v1.5c0 0.136-0.114 0.25-0.25 0.25h-1.75zM12.87 12.305c0.083-0.167 0.13-0.356 0.13-0.555v-1.5c0-0.689-0.561-1.25-1.25-1.25h-7.5c-0.689 0-1.25 0.561-1.25 1.25v1.5c0 0.199 0.047 0.387 0.13 0.555-1.014-1.147-1.63-2.654-1.63-4.305 0-3.59 2.91-6.5 6.5-6.5s6.5 2.91 6.5 6.5c0 1.651-0.616 3.158-1.63 4.305z"></path>
<path d="M11.379 4.015c-0.023 0.006-0.559 0.141-1.102 0.413-0.568 0.284-1.243 0.776-1.275 1.518-0.001 0.018-0.002 0.036-0.002 0.054 0 0.552 0.448 1 1 1s1-0.448 1-1c0-0.263-0.102-0.503-0.268-0.681 0.288-0.144 0.614-0.264 0.89-0.334 0.268-0.067 0.431-0.338 0.364-0.606s-0.338-0.431-0.606-0.364z"></path>
</svg>
<svg id="icon-frustrated2" width="16" height="16" viewBox="0 0 16 16" x="208" y="52">
<path d="M4 10.25v1.5c0 0.136 0.114 0.25 0.25 0.25h1.75v-2h-1.75c-0.136 0-0.25 0.114-0.25 0.25z"></path>
<path d="M7 10h2v2h-2v-2z"></path>
<path d="M11.75 10h-1.75v2h1.75c0.136 0 0.25-0.114 0.25-0.25v-1.5c0-0.136-0.114-0.25-0.25-0.25z"></path>
<path d="M8 0c-4.418 0-8 3.582-8 8s3.582 8 8 8 8-3.582 8-8-3.582-8-8-8zM9.002 5.946c0.032-0.741 0.706-1.234 1.275-1.518 0.543-0.271 1.080-0.407 1.102-0.413 0.268-0.067 0.539 0.096 0.606 0.364s-0.096 0.539-0.364 0.606c-0.275 0.070-0.602 0.189-0.89 0.334 0.166 0.179 0.268 0.418 0.268 0.681 0 0.552-0.448 1-1 1s-1-0.448-1-1c0-0.018 0.001-0.036 0.002-0.054zM4.015 4.379c0.067-0.268 0.338-0.431 0.606-0.364 0.023 0.006 0.559 0.141 1.102 0.413 0.568 0.284 1.243 0.776 1.275 1.518 0.001 0.018 0.002 0.036 0.002 0.054 0 0.552-0.448 1-1 1s-1-0.448-1-1c0-0.263 0.102-0.503 0.268-0.681-0.288-0.144-0.614-0.264-0.89-0.334-0.268-0.067-0.431-0.338-0.364-0.606zM13 11.75c0 0.689-0.561 1.25-1.25 1.25h-7.5c-0.689 0-1.25-0.561-1.25-1.25v-1.5c0-0.689 0.561-1.25 1.25-1.25h7.5c0.689 0 1.25 0.561 1.25 1.25v1.5z"></path>
</svg>
<svg id="icon-crying" width="16" height="16" viewBox="0 0 16 16" x="234" y="52">
<path d="M8 16c4.418 0 8-3.582 8-8s-3.582-8-8-8-8 3.582-8 8 3.582 8 8 8zM8 1.5c3.59 0 6.5 2.91 6.5 6.5s-2.91 6.5-6.5 6.5-6.5-2.91-6.5-6.5 2.91-6.5 6.5-6.5z"></path>
<path d="M12.5 6h-2c-0.276 0-0.5-0.224-0.5-0.5s0.224-0.5 0.5-0.5h2c0.276 0 0.5 0.224 0.5 0.5s-0.224 0.5-0.5 0.5z"></path>
<path d="M5.5 6h-2c-0.276 0-0.5-0.224-0.5-0.5s0.224-0.5 0.5-0.5h2c0.276 0 0.5 0.224 0.5 0.5s-0.224 0.5-0.5 0.5z"></path>
<path d="M9.5 13.375c-0.128 0-0.256-0.049-0.354-0.146-0.072-0.072-0.46-0.229-1.146-0.229s-1.075 0.157-1.146 0.229c-0.195 0.195-0.512 0.195-0.707 0s-0.195-0.512 0-0.707c0.471-0.471 1.453-0.521 1.854-0.521s1.383 0.051 1.854 0.521c0.195 0.195 0.195 0.512 0 0.707-0.098 0.098-0.226 0.146-0.354 0.146z"></path>
<path d="M11.5 9c-0.276 0-0.5-0.224-0.5-0.5v-1c0-0.276 0.224-0.5 0.5-0.5s0.5 0.224 0.5 0.5v1c0 0.276-0.224 0.5-0.5 0.5z"></path>
<path d="M11.5 12c-0.276 0-0.5-0.224-0.5-0.5v-1c0-0.276 0.224-0.5 0.5-0.5s0.5 0.224 0.5 0.5v1c0 0.276-0.224 0.5-0.5 0.5z"></path>
<path d="M4.5 9c-0.276 0-0.5-0.224-0.5-0.5v-1c0-0.276 0.224-0.5 0.5-0.5s0.5 0.224 0.5 0.5v1c0 0.276-0.224 0.5-0.5 0.5z"></path>
<path d="M4.5 12c-0.276 0-0.5-0.224-0.5-0.5v-1c0-0.276 0.224-0.5 0.5-0.5s0.5 0.224 0.5 0.5v1c0 0.276-0.224 0.5-0.5 0.5z"></path>
</svg>
<svg id="icon-crying2" width="16" height="16" viewBox="0 0 16 16" x="260" y="52">
<path d="M8 0c-4.418 0-8 3.582-8 8s3.582 8 8 8 8-3.582 8-8-3.582-8-8-8zM5 11.5c0 0.276-0.224 0.5-0.5 0.5s-0.5-0.224-0.5-0.5v-1c0-0.276 0.224-0.5 0.5-0.5s0.5 0.224 0.5 0.5v1zM5 8.5c0 0.276-0.224 0.5-0.5 0.5s-0.5-0.224-0.5-0.5v-1c0-0.276 0.224-0.5 0.5-0.5s0.5 0.224 0.5 0.5v1zM5.5 6h-2c-0.276 0-0.5-0.224-0.5-0.5s0.224-0.5 0.5-0.5h2c0.276 0 0.5 0.224 0.5 0.5s-0.224 0.5-0.5 0.5zM9.854 13.229c-0.098 0.098-0.226 0.146-0.354 0.146s-0.256-0.049-0.354-0.146c-0.072-0.072-0.46-0.229-1.146-0.229s-1.075 0.157-1.146 0.229c-0.195 0.195-0.512 0.195-0.707 0s-0.195-0.512 0-0.707c0.471-0.471 1.453-0.521 1.854-0.521s1.383 0.051 1.854 0.521c0.195 0.195 0.195 0.512 0 0.707zM12 11.5c0 0.276-0.224 0.5-0.5 0.5s-0.5-0.224-0.5-0.5v-1c0-0.276 0.224-0.5 0.5-0.5s0.5 0.224 0.5 0.5v1zM12 8.5c0 0.276-0.224 0.5-0.5 0.5s-0.5-0.224-0.5-0.5v-1c0-0.276 0.224-0.5 0.5-0.5s0.5 0.224 0.5 0.5v1zM12.5 6h-2c-0.276 0-0.5-0.224-0.5-0.5s0.224-0.5 0.5-0.5h2c0.276 0 0.5 0.224 0.5 0.5s-0.224 0.5-0.5 0.5z"></path>
</svg>
<svg id="icon-play2" width="16" height="16" viewBox="0 0 16 16" x="286" y="52">
<path d="M8 0c-4.418 0-8 3.582-8 8s3.582 8 8 8 8-3.582 8-8-3.582-8-8-8zM8 14.5c-3.59 0-6.5-2.91-6.5-6.5s2.91-6.5 6.5-6.5 6.5 2.91 6.5 6.5-2.91 6.5-6.5 6.5zM6 4.5l6 3.5-6 3.5z"></path>
</svg>
<svg id="icon-facebook2" width="32" height="32" viewBox="0 0 32 32" x="0" y="42">
<path fill="#3c5ea8" d="M26.667 0h-21.334c-2.945 0-5.333 2.388-5.333 5.334v21.332c0 2.946 2.387 5.334 5.333 5.334h10.667v-14h-4v-4h4v-3c0-2.761 2.239-5 5-5h5v4h-5c-0.552 0-1 0.448-1 1v3h5.5l-1 4h-4.5v14h6.667c2.945 0 5.333-2.388 5.333-5.334v-21.332c0-2.946-2.387-5.334-5.333-5.334z"></path>
</svg>
<svg id="icon-twitter2" width="32" height="32" viewBox="0 0 32 32" x="0" y="84">
<path fill="#02bceb" d="M26.667 0h-21.333c-2.934 0-5.334 2.4-5.334 5.334v21.332c0 2.936 2.4 5.334 5.334 5.334h21.333c2.934 0 5.333-2.398 5.333-5.334v-21.332c0-2.934-2.399-5.334-5.333-5.334zM23.952 11.921c0.008 0.176 0.012 0.353 0.012 0.531 0 5.422-4.127 11.675-11.675 11.675-2.317 0-4.474-0.679-6.29-1.844 0.321 0.038 0.648 0.058 0.979 0.058 1.922 0 3.692-0.656 5.096-1.757-1.796-0.033-3.311-1.219-3.833-2.849 0.251 0.048 0.508 0.074 0.772 0.074 0.374 0 0.737-0.050 1.081-0.144-1.877-0.377-3.291-2.035-3.291-4.023 0-0.017 0-0.034 0-0.052 0.553 0.307 1.186 0.492 1.858 0.513-1.101-0.736-1.825-1.992-1.825-3.415 0-0.752 0.202-1.457 0.556-2.063 2.024 2.482 5.047 4.116 8.457 4.287-0.070-0.3-0.106-0.614-0.106-0.935 0-2.266 1.837-4.103 4.103-4.103 1.18 0 2.247 0.498 2.995 1.296 0.935-0.184 1.813-0.525 2.606-0.996-0.306 0.958-0.957 1.762-1.804 2.27 0.83-0.099 1.621-0.32 2.357-0.646-0.55 0.823-1.245 1.545-2.047 2.124z"></path>
</svg>
<svg id="icon-sina-weibo" width="16" height="16" viewBox="0 0 16 16" x="364" y="52">
<path d="M6.722 14.031c-2.65 0.262-4.938-0.938-5.109-2.675-0.172-1.741 1.837-3.359 4.484-3.622 2.65-0.263 4.938 0.938 5.106 2.675 0.175 1.741-1.834 3.362-4.481 3.622zM12.019 8.259c-0.225-0.069-0.381-0.113-0.262-0.409 0.256-0.644 0.281-1.197 0.003-1.594-0.519-0.741-1.941-0.703-3.569-0.019 0 0-0.513 0.222-0.381-0.181 0.25-0.806 0.213-1.478-0.178-1.869-0.884-0.884-3.234 0.034-5.25 2.050-1.506 1.503-2.381 3.106-2.381 4.491 0 2.644 3.394 4.253 6.713 4.253 4.35 0 7.247-2.528 7.247-4.534 0-1.216-1.022-1.903-1.941-2.188z"></path>
<path d="M14.909 3.416c-1.050-1.166-2.6-1.609-4.031-1.306v0c-0.331 0.072-0.541 0.397-0.469 0.725 0.072 0.331 0.394 0.541 0.725 0.469 1.019-0.216 2.119 0.1 2.866 0.928s0.95 1.956 0.628 2.944v0c-0.103 0.322 0.072 0.666 0.394 0.772 0.322 0.103 0.666-0.072 0.772-0.394v-0.003c0.45-1.381 0.166-2.969-0.884-4.134z"></path>
<path d="M13.294 4.875c-0.512-0.569-1.269-0.784-1.963-0.634-0.284 0.059-0.466 0.344-0.406 0.628 0.063 0.284 0.344 0.466 0.625 0.403v0c0.341-0.072 0.709 0.034 0.959 0.309 0.25 0.278 0.319 0.656 0.209 0.987v0c-0.088 0.275 0.063 0.575 0.341 0.666 0.278 0.088 0.575-0.063 0.666-0.341 0.219-0.678 0.081-1.453-0.431-2.019z"></path>
<path d="M6.869 10.884c-0.094 0.159-0.297 0.234-0.456 0.169-0.159-0.063-0.206-0.244-0.116-0.397 0.094-0.153 0.291-0.228 0.447-0.169 0.156 0.056 0.213 0.234 0.125 0.397zM6.022 11.966c-0.256 0.409-0.806 0.588-1.219 0.4-0.406-0.184-0.528-0.659-0.272-1.059 0.253-0.397 0.784-0.575 1.194-0.403 0.416 0.178 0.55 0.65 0.297 1.063zM6.984 9.072c-1.259-0.328-2.684 0.3-3.231 1.409-0.559 1.131-0.019 2.391 1.253 2.803 1.319 0.425 2.875-0.228 3.416-1.447 0.534-1.197-0.131-2.425-1.438-2.766z"></path>
</svg>
<svg id="icon-appleinc" width="16" height="16" viewBox="0 0 16 16" x="390" y="52">
<path d="M12.367 8.501c-0.020-2.026 1.652-2.998 1.727-3.046-0.94-1.375-2.404-1.564-2.926-1.585-1.246-0.126-2.431 0.734-3.064 0.734-0.631 0-1.607-0.715-2.64-0.696-1.358 0.020-2.61 0.79-3.31 2.006-1.411 2.448-0.361 6.076 1.014 8.061 0.672 0.972 1.473 2.064 2.525 2.025 1.013-0.040 1.396-0.656 2.621-0.656s1.569 0.656 2.641 0.635c1.090-0.020 1.781-0.991 2.448-1.966 0.772-1.128 1.089-2.219 1.108-2.275-0.024-0.011-2.126-0.816-2.147-3.236zM10.353 2.555c0.558-0.677 0.935-1.617 0.832-2.555-0.804 0.033-1.779 0.536-2.356 1.212-0.518 0.6-0.971 1.557-0.85 2.476 0.898 0.070 1.815-0.456 2.373-1.132z"></path>
</svg>
<svg id="icon-android" width="16" height="16" viewBox="0 0 16 16" x="0" y="78">
<path d="M14 6c-0.55 0-1 0.45-1 1v4c0 0.55 0.45 1 1 1s1-0.45 1-1v-4c0-0.55-0.45-1-1-1zM2 6c-0.55 0-1 0.45-1 1v4c0 0.55 0.45 1 1 1s1-0.45 1-1v-4c0-0.55-0.45-1-1-1zM3.5 11.5c0 0.828 0.672 1.5 1.5 1.5v0 2c0 0.55 0.45 1 1 1s1-0.45 1-1v-2h2v2c0 0.55 0.45 1 1 1s1-0.45 1-1v-2c0.828 0 1.5-0.672 1.5-1.5v-5.5h-9v5.5z"></path>
<path d="M12.472 5c-0.152-1.373-0.922-2.559-2.025-3.276l0.5-1.001c0.123-0.247 0.023-0.547-0.224-0.671s-0.547-0.023-0.671 0.224l-0.502 1.004-0.13-0.052c-0.446-0.148-0.924-0.229-1.42-0.229s-0.974 0.081-1.42 0.229l-0.13 0.052-0.502-1.004c-0.123-0.247-0.424-0.347-0.671-0.224s-0.347 0.424-0.224 0.671l0.5 1.001c-1.103 0.716-1.873 1.903-2.025 3.276v0.5h8.972v-0.5h-0.028zM6.5 4c-0.276 0-0.5-0.224-0.5-0.5s0.223-0.499 0.499-0.5c0 0 0.001 0 0.001 0s0.001-0 0.001-0c0.276 0.001 0.499 0.224 0.499 0.5s-0.224 0.5-0.5 0.5zM9.5 4c-0.276 0-0.5-0.224-0.5-0.5s0.223-0.499 0.499-0.5c0 0 0.001 0 0.001 0s0.001-0 0.002-0c0.276 0.001 0.499 0.224 0.499 0.5s-0.224 0.5-0.5 0.5z"></path>
</svg>
</svg>
